<?xml version="1.0" encoding="UTF-8" standalone="no"?>
<svg
   xmlns:dc="http://purl.org/dc/elements/1.1/"
   xmlns:cc="http://creativecommons.org/ns#"
   xmlns:rdf="http://www.w3.org/1999/02/22-rdf-syntax-ns#"
   xmlns:svg="http://www.w3.org/2000/svg"
   xmlns="http://www.w3.org/2000/svg"
   xmlns:sodipodi="http://sodipodi.sourceforge.net/DTD/sodipodi-0.dtd"
   xmlns:inkscape="http://www.inkscape.org/namespaces/inkscape"
   width="100"
   height="100"
   viewBox="0 0 13.161954 13.16"
   preserveAspectRatio="xMinYMin meet"
   version="1.1"
   id="svg4"
   sodipodi:docname="flask-logo.svg"
   inkscape:version="0.92.3 (2405546, 2018-03-11)">
  <metadata
     id="metadata10">
    <rdf:RDF>
      <cc:Work
         rdf:about="">
        <dc:format>image/svg+xml</dc:format>
        <dc:type
           rdf:resource="http://purl.org/dc/dcmitype/StillImage" />
        <dc:title></dc:title>
      </cc:Work>
    </rdf:RDF>
  </metadata>
  <defs
     id="defs8" />
  <sodipodi:namedview
     pagecolor="#ffffff"
     bordercolor="#666666"
     borderopacity="1"
     objecttolerance="10"
     gridtolerance="10"
     guidetolerance="10"
     inkscape:pageopacity="0"
     inkscape:pageshadow="2"
     inkscape:window-width="1366"
     inkscape:window-height="703"
     id="namedview6"
     showgrid="false"
     inkscape:snap-bbox="true"
     inkscape:bbox-paths="true"
     inkscape:bbox-nodes="true"
     inkscape:snap-bbox-edge-midpoints="true"
     inkscape:snap-bbox-midpoints="true"
     inkscape:object-paths="true"
     inkscape:snap-intersection-paths="true"
     inkscape:snap-smooth-nodes="true"
     inkscape:snap-midpoints="true"
     inkscape:snap-object-midpoints="true"
     inkscape:snap-center="true"
     inkscape:snap-text-baseline="true"
     inkscape:snap-page="true"
     inkscape:zoom="3.0208"
     inkscape:cx="71.648412"
     inkscape:cy="30.651133"
     inkscape:window-x="0"
     inkscape:window-y="0"
     inkscape:window-maximized="1"
     inkscape:current-layer="layer1"
     inkscape:snap-global="false" />
  <g
     inkscape:groupmode="layer"
     id="layer1"
     inkscape:label="logo"
     transform="translate(0,-54.22725)">
    <path
       d="M 4.7208912,64.02882 C 4.3687311,63.751787 3.9929863,63.486313 3.7362893,63.11223 3.1959129,62.452554 2.7799675,61.688963 2.4956036,60.886401 2.3236773,60.364482 2.2648035,59.804965 2.0430334,59.303309 c -0.231667,-0.364477 0.039913,-0.762616 0.4390977,-0.878414 0.1775969,-0.03424 0.4900618,-0.201904 0.1128718,-0.08192 -0.3382176,0.247993 -0.3707969,-0.225381 -0.024053,-0.25536 0.2366514,-0.03139 0.3237705,-0.225021 0.2427554,-0.399331 -0.2541331,-0.165785 0.6160076,-0.347681 0.1781388,-0.594987 -0.4558211,-0.49194 0.6378606,-0.586644 0.3679794,-0.02785 -0.064509,0.429636 0.7644941,-0.07892 0.5719803,0.417319 0.1955841,0.238348 0.7322032,0.05436 0.7187307,0.388531 0.284832,0.01957 0.3826062,0.259081 0.6497063,0.277502 0.2772845,0.125188 0.7794467,0.223648 0.8736452,0.535896 -0.2748656,0.217545 -0.9111716,-0.449427 -0.9419095,0.152856 0.083142,0.889898 0.061947,1.806561 0.3874126,2.653946 0.1539383,0.513034 0.5273355,0.91688 0.8643615,1.316535 0.3226493,0.391312 0.7595817,0.666972 1.2050362,0.898891 0.3906261,0.184208 0.8117714,0.306289 1.2376137,0.383078 0.1726489,-0.132051 0.4775282,-0.623051 0.7467589,-0.416162 0.013002,0.232931 -0.5344158,0.486558 -0.025681,0.460805 0.2989924,-0.09023 0.5061336,0.230945 0.7522126,-0.05884 0.226754,0.268581 0.942343,-0.171456 0.781072,0.377443 -0.218232,0.140792 -0.536366,0.05573 -0.754813,0.249437 C 10.065771,64.522709 9.7789875,64.863527 9.3800894,64.820546 8.937271,64.899863 8.4865793,64.931792 8.0376569,64.932442 7.3009755,64.874328 6.5487624,64.8498 5.8479824,64.593286 5.4530952,64.478572 5.0678869,64.253695 4.7208929,64.028819 Z m 0.6221124,0.269736 c 0.385461,0.166508 0.7624348,0.342227 1.1849541,0.395358 0.6702939,0.09308 1.3625129,0.236651 2.0351561,0.105828 -0.3044103,-0.137433 -0.6192602,0.05338 -0.9225127,-0.09824 -0.3637184,0.07816 -0.7540918,-0.02008 -1.1240219,-0.06852 -0.4204244,-0.18724 -0.874294,-0.315968 -1.268026,-0.559301 -0.4922305,-0.179691 0.2543841,0.230547 0.387338,0.263885 C 5.943409,64.51202 5.2976379,64.247986 5.2064384,64.1755 4.9488382,64.030952 4.916041,64.061184 5.1810114,64.20786 c 0.053347,0.03121 0.106046,0.06403 0.1619938,0.09069 z M 4.6094281,63.780141 C 4.9830789,63.918548 4.6078167,63.517483 4.43678,63.540672 4.3609317,63.409091 4.1469966,63.325945 4.2979029,63.255333 4.0265409,63.349603 4.0135382,62.897032 3.8860378,62.961794 3.5988208,62.8711 3.7742864,62.549858 3.4320597,62.352468 3.4008485,62.144567 3.0921797,61.96437 2.9939365,61.65093 2.9504867,61.490346 2.6450994,61.029576 2.8326288,61.458417 c 0.1596462,0.412839 0.4404708,0.766696 0.6743047,1.119794 0.1813897,0.336268 0.3958634,0.687994 0.7262799,0.897736 0.1114995,0.106985 0.2189161,0.270639 0.3761782,0.304194 z M 3.5334088,62.59851 c 0.012934,-0.05645 0.068266,0.122082 0,0 z m 1.5236042,1.347417 c 0.082642,-0.03705 -0.119047,-0.04674 0,0 z m 0.2026278,0.07397 c -0.020991,-0.102073 -0.092573,0.05714 0,0 z m 0.2539168,0.105829 c 0.1206729,-0.115112 -0.1863733,-0.0726 0,0 z m 0.4350513,0.242466 c 0.073431,-0.108394 -0.2350247,-0.04082 0,0 z M 5.11325,63.785851 c 0.187459,-0.121432 -0.2425739,-0.0018 0,0 z m 0.1903469,0.09492 c -0.00543,-0.06403 -0.067791,0.02879 0,0 z m 0.9515536,0.593977 c 0.153035,0.09662 0.8935101,0.21162 0.4298878,0.03966 -0.077765,0.01633 -0.8597392,-0.221301 -0.4298878,-0.03966 z M 4.7445489,63.2981 c -0.014885,-0.06419 -0.2376632,-0.07108 0,0 z m 0.4428185,0.258431 c 0.1154713,-0.08055 -0.2392518,-0.06213 0,0 z m 0.3726746,0.22838 c 0.1655695,-0.06234 -0.2682553,-0.06259 0,0 z M 4.5640981,63.101827 c 0.1795119,0.137649 0.7241849,0.0177 0.2749021,-0.08217 -0.2042885,-0.108898 -0.6648413,-0.183484 -0.3508955,0.06566 z m 1.2484876,0.761929 c 0.074839,-0.127319 -0.313694,-0.07278 0,0 z M 5.4332278,63.562344 c 0.4388458,0.124033 -0.3691337,-0.277755 -0.1083564,-0.0458 l 0.057902,0.02622 z m 0.7605927,0.439567 c 0.4156562,0.004 -0.3755651,-0.05736 0,0 z M 4.4042373,62.861347 c -0.016335,-0.07743 -0.102506,0.0064 0,0 z m 2.492676,1.534983 c 0.011077,-0.13978 -0.1355932,0.104167 0,0 z M 5.1137199,63.295713 c -0.025283,-0.07368 -0.1298836,-0.0031 0,0 z M 4.4436423,62.812732 c 0.2386021,-0.01438 -0.3268756,-0.105107 0,0 z M 3.6498198,62.299698 c -0.029727,-0.114497 -0.2595509,-0.205661 0,0 z m 2.0838821,1.322459 c -0.043704,-0.04988 -0.020584,0.01084 0,0 z m 1.2968488,0.795952 c -0.00399,-0.07632 -0.070607,0.02875 0,0 z M 5.618915,63.503578 c 0.023408,-0.09824 -0.2035641,-0.0298 0,0 z M 4.6526616,62.891146 c 0.1776325,-0.01892 -0.2846166,-0.119987 0,0 z m 1.634455,1.015628 c 0.276779,-0.109621 -0.2697362,-0.05342 0,0 z M 5.4370579,63.329773 c 0.31882,0.04103 -0.3795394,-0.217074 -0.07014,-0.02319 z m 1.1081279,0.681348 c 0.2978729,-0.177813 0.1996296,0.416885 0.505268,0.05031 0.3013409,-0.220108 -0.2603092,0.272084 0.1109923,0.03922 0.2687617,-0.179764 0.6655283,0.08524 0.9161569,0.171456 0.1801608,-0.0087 0.3554466,0.155889 0.5403391,0.0557 C 8.9736422,64.23191 7.922183,64.185677 8.1977713,64.01581 7.8723392,64.110586 7.6319315,63.902939 7.4717806,63.694387 7.1066179,63.610049 6.6845693,63.423496 6.5022407,63.100159 6.4278342,62.979016 6.6095131,63.117427 6.4380202,62.919023 6.2181296,62.723439 6.108328,62.501163 5.9606727,62.263356 5.7842335,62.169339 5.7634636,61.892306 5.7457292,62.254179 5.747171,62.025762 5.5326991,61.872004 5.4802558,61.93579 5.4794076,61.715862 5.7098626,61.826169 5.5485218,61.663453 5.5138502,61.435507 5.3994951,61.197952 5.365217,60.940496 5.311912,60.816501 5.3576686,60.55081 5.1829248,60.831598 c -0.063567,0.296898 -0.021025,-0.364656 0.077943,-0.146643 0.1298853,-0.222492 -0.046808,-0.196305 -0.05389,-0.165568 0.084593,-0.187747 0.053636,-0.454196 -0.02217,-0.35263 0.045112,-0.199123 0.071336,-0.732636 -0.067291,-0.637933 0.08405,-0.208297 0.1594291,-0.952816 -0.2057701,-0.668849 -0.1478352,0.002 -0.4040623,0.05363 -0.5249871,0.113846 0.3795369,0.209274 -0.038285,0.07556 -0.1929845,0.04225 -0.020084,0.19367 -0.1731188,0.110054 -0.3644393,0.111933 0.3056384,0.03778 -0.1488105,0.312428 -0.3237714,0.205733 -0.2276934,0.108646 0.1962711,0.380261 0.0045,0.464309 0.023654,0.12638 -0.3486208,-0.04577 -0.3195443,0.24662 -0.2208677,-0.09312 -0.030236,0.346705 0.080293,0.197932 0.3757822,0.101782 0.2645363,0.333486 0.2739624,0.553811 -0.061184,0.128222 -0.3023154,-0.301593 -0.053636,-0.281728 -0.1962693,-0.318677 -0.217001,-0.115291 -0.3800058,0.0328 -0.037784,0.01065 0.4156935,0.210645 0.1311117,0.309395 0.2503393,0.03875 0.2576731,0.257925 0.3087077,0.396585 0.1504355,0.156756 0.1194457,-0.17319 0.299715,0.01534 -0.1141346,-0.167952 -0.6037266,-0.473156 -0.20949,-0.375274 -0.00212,-0.168892 -0.07137,-0.305205 0.049556,-0.301918 0.1197696,-0.216569 -0.1254046,0.534271 0.1443315,0.2589 0.074585,-0.03259 0.093296,-0.216821 0.2274416,0.01748 0.1948241,0.191792 0.070395,0.330597 -0.2045429,0.154915 0.049124,0.166977 0.3677275,0.226465 0.3077349,0.487497 0.063491,0.229572 0.1523489,0.144982 0.2297884,0.131762 0.060684,0.222962 0.095245,0.05905 0.098062,-0.04724 0.2779715,0.0596 0.2127774,0.223938 0.2998974,0.338723 0.1915367,0.0864 -0.2741795,-0.585993 0.054611,-0.202192 0.3459475,0.312464 0.1298845,0.442817 -0.1806663,0.392793 0.1964865,-0.01589 0.2597316,0.265726 0.505665,0.255793 0.2241168,0.106732 0.3759976,0.516285 -0.010415,0.345731 -0.1339309,-0.120927 -0.6084601,-0.269953 -0.2208312,-0.04012 0.357577,0.165786 0.6419417,0.264751 0.9869851,0.472869 0.2468375,0.176188 0.3535332,0.378056 0.4470811,0.41804 -0.2075757,0.09915 -0.6253633,-0.07914 -0.315067,-0.133676 -0.193669,-0.03521 -0.4113935,-0.133207 -0.2260302,0.107924 0.1577659,0.131798 0.5585781,0.11782 0.6306361,0.132701 -0.06093,0.134182 -0.1655339,0.144836 0.00237,0.155203 -0.187314,0.0999 0.060243,0.115508 0.077477,0.172395 z M 6.162108,62.929179 C 6.0480437,62.809914 6.0185356,62.586735 6.141812,62.780803 c 0.063321,0.02554 0.202448,0.364981 0.020296,0.148376 z m 1.2478006,0.792629 c 0.071082,-0.0047 0.00204,0.05403 0,0 z M 5.9822008,62.636796 c -0.00458,-0.180234 0.041033,0.139058 0,0 z m -0.124034,-0.166761 c -0.1435725,-0.277032 0.1806679,0.07842 0,0 z m -1.5030889,-1.0373 c 0.084338,-0.0225 0.041575,0.144007 0,0 z m 1.1962962,0.6483 c 0.051719,-0.194393 0.060709,0.163004 0,0 z M 4.7062982,61.493379 c -0.059488,-0.107201 0.1245031,0.100664 0,0 z m 0.7250883,0.232426 c -0.1358078,-0.304195 0.096365,-0.166292 0.030227,0.04984 z M 4.180804,60.891819 C 4.12012,60.791949 4.0197143,60.499061 4.0520772,60.409594 c 0.02904,0.145704 0.3096458,0.626809 0.1374312,0.199342 -0.1900925,-0.358301 0.227478,0.116157 0.2704604,0.205696 0.020084,0.08882 -0.1173864,-0.02431 -0.024341,0.184206 C 4.2658333,60.761465 4.33547,61.12995 4.1808082,60.891819 Z M 3.7944041,60.625442 c 0.015826,-0.232172 0.088347,0.159176 0,0 z m 0.1738413,0.05995 c 0.082896,-0.175177 0.1405031,0.244237 0,0 z m -0.418293,-0.323514 c -0.1438625,-0.143175 -0.2480291,-0.274937 0.00678,-0.08885 0.098026,0.0038 -0.218196,-0.299678 0.023654,-0.09636 0.2540958,0.04634 0.1253682,0.416921 -0.030482,0.185218 z m 0.2196387,-0.0057 c 0.083651,-0.0829 0.044425,0.08148 0,0 z m 0.1353363,0.04319 c -0.126849,-0.237373 0.1537585,0.09969 0,0 z M 3.6361683,60.142713 c -0.4182591,-0.37253 0.5254942,0.194573 0.068266,0.06892 z m 1.1986056,0.696228 c -0.1811361,-0.108428 -0.048182,-0.764023 0.013723,-0.31575 0.1759702,-0.05696 -0.00975,0.231701 0.121359,0.228849 -0.020516,0.182039 -0.079317,0.247558 -0.1350852,0.0869 z m 0.4433239,0.262152 c 0.017692,-0.197643 0.037309,0.135157 0,0 z M 5.20113,61.024812 c 0.019829,-0.08431 0.00187,0.09943 0,0 z m -1.4830425,-1.00447 c -0.2687251,-0.370832 0.7810726,0.375023 0.1722156,0.09402 -0.063567,-0.01676 -0.1402851,-0.02268 -0.1722156,-0.09402 z m 0.8538142,0.452571 c -0.025461,-0.312248 0.056706,0.05165 0,0 z m 0.6480839,0.415836 c 0.050057,-0.177813 0.00382,0.117676 0,0 z m -1.460544,-1.009885 c 0.1596809,-0.03424 0.661771,0.280355 0.2007491,0.08976 -0.051219,-0.05671 -0.1605859,-0.03095 -0.2007491,-0.08979 z m 1.3714708,0.683515 c 0.017073,-0.319291 0.095499,-0.1906 7.378e-4,0.04583 l -7.378e-4,-0.04587 z M 3.8782367,59.767654 c 0.065153,-0.09546 -0.1729373,-0.431512 0.034205,-0.120493 0.089575,0.07108 0.2590819,0.119048 0.1093699,0.149027 0.2354589,0.207648 -0.057359,0.05624 -0.1435733,-0.02853 z m 1.1848812,0.695073 c 0.044934,-0.363718 0.039735,0.21303 0,0 z M 3.7421762,59.431784 c 0.049845,-0.02131 0.026436,0.06632 0,0 z m 0.3091776,0.18399 c 0.079538,-0.167013 0.1466435,0.186085 0,0 z m 0.8717317,0.484861 c -7.37e-4,-0.064 0.016513,0.0933 0,0 z M 4.87252,59.988955 c -0.1209265,-0.298558 0.112692,0.157984 0,0 z M 4.798334,59.793118 c -0.020228,-0.12331 0.068987,0.15495 0,0 z m 0.1209248,-0.196487 c -0.083108,-0.146245 0.1049248,-0.644795 0.1259466,-0.335617 -0.08766,0.240913 -0.025283,0.375564 0.035613,0.05244 0.112943,-0.254133 -0.024307,0.501909 -0.1615605,0.283172 z m 0.1242494,-0.741377 c 0.03619,-0.04443 0.00806,0.05356 0,0 z m -0.2075393,4.089024 c -0.049158,-0.04298 0.00628,0.0272 0,0 z m 0.4274682,0.216136 c 0.2378074,0.06118 0.2366514,-0.03688 0.02167,-0.06617 -0.115473,-0.107418 -0.480383,-0.221517 -0.1537237,-0.01321 0.021534,0.05483 0.089792,0.05338 0.1320523,0.07939 z m -0.844104,-0.560747 c 0.1308251,0.09785 0.4933501,0.276815 0.1865549,0.03739 C 4.7093337,62.516781 4.4079572,62.452814 4.507898,62.372305 4.2535121,62.216597 4.3070767,62.230538 4.485465,62.235523 4.1798275,62.09874 4.529602,62.109143 4.513097,62.039036 c -0.1178554,-0.02319 -0.5855232,-0.207901 -0.3103692,0.0151 -0.2796339,-0.142453 -0.066638,0.05314 -0.1511582,0.03259 -0.2860618,-0.07794 0.2546378,0.217797 -0.045367,0.144332 0.1639429,0.129883 0.4414453,0.333016 0.069208,0.137432 -0.048869,0.07062 0.2664488,0.177633 0.3438891,0.231197 z m 0.4470447,0.256986 c 0.5434831,0.175032 -0.2666659,-0.214221 0,0 z m 2.2886412,1.386389 c 0.00712,-0.107923 -0.074186,0.0921 0,0 z m 0.2352418,0.09896 c 0.1254046,-0.121359 0.00526,0.193671 0.2078277,-0.02973 0.00204,-0.159934 -0.00619,-0.254349 -0.2328577,-0.06003 -0.062626,0.03475 -0.090442,0.181858 0.025028,0.08979 z m -3.7340469,-2.34498 c -0.038539,-0.151411 -0.2699889,-0.150761 0,0 z m 0.2510272,0.164558 c -0.093297,-0.154662 -0.3327998,-0.140034 0,0 z m 1.429153,0.861833 c 0.1396354,0.124033 0.6407858,0.09095 0.1693972,0.01539 -0.069708,-0.103227 -0.443106,-0.07841 -0.1693972,-0.01539 z m 1.9643279,1.213343 c 0.2146907,-0.180233 -0.208044,0.08029 0,0 z m 0.4466469,0.306758 c 0.00144,-0.05787 -0.092573,0.02528 0,0 z m 7.37e-4,-0.08101 c 0.2378082,-0.251749 -0.2302947,0.01488 0,0 z M 3.038326,61.479726 C 2.8356999,61.190631 2.9124515,61.06071 2.7169047,60.824529 2.6797736,60.643862 2.3815402,60.23431 2.5626764,60.66817 c 0.1657858,0.253917 0.214907,0.64689 0.475686,0.811556 z m 4.6351062,2.902697 c 0.4376898,-0.282738 -0.1794747,-0.123057 0,0 z m 0.3339922,0.130824 c 0.2191689,-0.188035 -0.1386609,-0.03922 0,0 z M 3.5817726,61.677369 c 0.062626,-0.0933 -0.1619939,-0.01202 0,0 z m 4.3559431,2.746592 c 0.2120895,-0.136711 -0.048869,-0.115725 -0.038463,0.0125 z M 5.0591088,62.609598 c -0.00729,-0.09257 -0.1121501,0.0078 0,0 z m 0.1778505,0.102289 c -0.056672,-0.114316 -0.086903,0.01795 0,0 z m 3.0411045,1.804466 c 0.271831,-0.19609 -0.164595,-0.0376 -0.056926,0.03731 z M 8.173932,64.466041 c 0.2215174,-0.185434 -0.2336159,0.08217 0,0 z m 0.5318154,0.354003 c 0.1486307,-0.09944 -0.1806307,-0.03211 0,0 z M 3.718085,61.610082 c 0.1990868,0.04461 0.7961345,0.490531 0.4440101,0.03095 -0.1804136,-0.05338 -0.072235,-0.49436 -0.2562271,-0.416415 0.1235268,0.20642 0.1014932,0.294008 -0.1578397,0.164161 -0.3256492,-0.159212 -0.1830139,0.07866 -0.1191938,0.144331 -0.086972,0.01983 0.1147504,0.07534 0.089215,0.07693 z M 2.8104162,60.893301 c 0.035647,-0.147655 -0.3285379,-0.811557 -0.1719263,-0.332799 0.056418,0.100373 0.050566,0.290467 0.1719263,0.332799 z m 1.6660216,1.027114 c -0.1027222,-0.08571 -0.005,-0.01228 0,0 z m 0.2524716,0.05888 c 0,-0.156394 -0.2791267,-0.06357 0,0 z m 2.1894574,1.379996 c -0.041787,-0.106804 -0.165065,-0.0024 0,0 z m 0.1051054,0.07671 c -0.015648,-0.05974 -0.060752,0.01159 0,0 z M 7.891194,63.98277 c 0.083397,-0.06162 -0.1041674,-0.008 0,0 z M 3.2636726,61.009029 c 0.2387463,-0.09239 -0.255831,-0.06592 0,0 z m 3.4619267,2.18086 c -0.0028,-0.154444 -0.1523124,0.03854 0,0 z M 3.1694029,60.7891 c 0.1532877,-0.05165 -0.1419491,-0.03396 0,0 z m 0.4449854,0.21563 c -0.00263,-0.05074 -0.046987,0.0194 0,0 z m 5.4286734,3.32901 c 0.1972091,-0.03991 0.6466744,0.10041 0.719165,-0.05216 -0.2394689,-0.0059 -0.8282796,-0.169145 -0.8561636,0.03868 l 0.05244,0.0083 0.084592,0.0052 z M 3.7558294,61.040416 c 0.00365,-0.156612 -0.1220817,-0.0059 0,0 z M 2.5858643,60.228639 c -0.053127,-0.298343 -0.2021936,-0.04515 0,0 z m 0.2789103,0.07014 c 0.00356,-0.0959 -0.2553603,-0.08622 0,0 z m 0.1594291,0.07842 c -0.046054,-0.03734 -0.035901,0.04695 0,0 z M 4.0277325,61.0208 c 0.047275,-0.04348 -0.1119329,-0.03211 0,0 z M 2.9181594,60.200539 c -0.027123,-0.22531 -0.3233372,-0.03377 0,0 z M 2.3458543,59.829236 c -0.00806,-0.103914 -0.055765,0.03919 0,0 z m 0.08524,-0.06419 c -0.013909,-0.123346 -0.073211,0.01553 0,0 z m 0.4700884,0.280535 c 0.1988697,-0.07794 -0.362129,-0.16156 -0.040634,-0.01463 z M 9.19404,63.932704 c 0.1272824,-0.116664 -0.1615596,-0.03612 0,0 z m 0.7602663,0.39395 c 0.051041,-0.150653 -0.1285105,0.01987 0,0 z m -7.005085,-4.527399 c 0.021051,-0.145921 -0.1577311,0.02904 0,0 z m -0.669031,-0.448236 c -0.035901,-0.20595 -0.030957,-0.567573 0.3127177,-0.445456 -0.4587107,0.09116 0.3176657,0.570319 0.2196387,0.191973 0.1929481,0.0095 0.3774437,-0.114028 0.2760929,0.07321 0.3802603,-0.04179 0.6436406,-0.371483 1.0108609,-0.325179 0.2859897,-0.038 0.5987074,-0.0666 0.906947,-0.181859 0.2534104,-0.0182 0.4973575,-0.29101 0.3585524,-0.452787 -0.3455506,-0.02926 -0.707426,0.01394 -1.0893113,0.09001 -0.4232045,0.08784 -0.8076911,0.255036 -1.2347623,0.326877 -0.4164144,0.05598 0.083617,0.153975 -0.035681,0.175935 -0.2170749,0.07535 0.2591175,0.126128 -0.028099,0.205698 -0.177345,-0.03373 -0.362056,-0.09467 -0.2862433,-0.281728 -0.3986809,0.05194 -0.7491786,0.217255 -0.4340776,0.623016 l 0.023408,2.24e-4 z m 0.9610526,-0.489412 c 0.093294,-0.344321 0.5006814,0.283462 0.1530342,0.04583 -0.041355,-0.03121 -0.1098736,-0.05649 -0.1530342,-0.04583 z m 0.018133,-0.167014 c 0.1349037,-0.100338 0.071591,0.05649 0,0 z m 0.1712401,0.0029 c 0.012349,-0.15849 0.3923606,0.08383 0.062626,0.05693 l -0.062626,-0.05696 z m 0.2343038,-0.09423 c 0.085747,-0.100194 0.02485,0.08878 0,0 z m 0.060031,-0.04012 c 0.1426327,-0.17124 0.8070033,-0.109404 0.3206995,-0.01684 -0.1303891,-0.09824 -0.230259,0.05787 -0.3206995,0.01684 z M 4.5921663,58.42943 c -0.021458,-0.46792 0.4310421,0.166039 0,0 z m 0.2461505,-0.0014 c 0.089936,-0.235676 0.3492679,-0.09467 0.041787,-0.04746 0.00653,0.02528 -0.00922,0.121902 -0.041787,0.04746 z m -1.9860722,1.250332 c 0.2687243,-0.164629 -0.2853401,-0.14285 0,0 z m 0.198834,0.05504 c 0.09427,-0.100121 -0.2050101,-0.04063 0,0 z m -0.585704,-0.415477 c 0.1535049,-0.118109 -0.1818588,-0.04486 0,0 z m 7.9376404,4.965737 c 0.0045,-0.137 -0.117386,0.06162 0,0 z M 9.5964417,63.733111 c 0.0229,-0.157478 -0.1036611,0.01372 0,0 z m 1.0283433,0.603728 c 0.214726,7.37e-4 0.650645,-0.06689 0.183483,-0.06664 -0.07343,0.01138 -0.427214,0.009 -0.183483,0.06664 z M 3.2258943,59.63672 c 0.1738397,-0.01181 0.271831,-0.191576 -0.033807,-0.181389 -0.4735199,-0.04887 0.4177867,0.162281 -0.060684,0.101818 -0.064221,0.04252 0.090657,0.09138 0.094488,0.07957 z m 0.1530351,0.07751 c -0.018201,-0.1115 -0.05389,0.05923 0,0 z m 0.1816068,-0.484212 c 0.075348,-0.09355 -0.1043845,-0.02503 0,0 z m -0.578192,-0.96618 c 0.3103693,-0.105323 0.7345517,-0.223902 0.881012,0.05202 -0.1490623,-0.179259 -0.060209,-0.355952 0.080547,-0.09355 0.1990869,0.265257 0.2987024,-0.120674 0.1692886,-0.209743 0.1476537,0.183267 0.3153181,0.269989 0.098712,0.01164 0.2354954,-0.283208 -0.4711715,0.03706 -0.6317557,0.03373 -0.077222,0.03467 -0.7978316,0.183737 -0.5977677,0.205914 z M 3.1642038,57.91576 c 0.1769464,-0.133424 0.6119621,0.07957 0.3327981,-0.132773 -0.027378,-0.02406 -0.6112046,0.16109 -0.3327981,0.132773 z m 0.6450468,0.02666 c 0.2068888,0.0053 -0.089249,-0.278224 0.1572977,-0.149749 -0.040379,-0.132231 -0.2871805,-0.157045 -0.4078542,-0.209923 -0.068266,0.120925 0.1388051,0.361333 0.2505565,0.359672 z M 3.2773275,57.356893 c 0.071582,-0.09705 -0.1256226,0.04937 0,0 z m 0.2636686,0.06303 c 0.3336666,-0.04414 -0.085098,-0.143573 -0.067401,-0.0035 l 0.067367,0.0035 z M 3.0486944,57.034962 c -0.2350256,-0.306795 0.4419143,0.05151 0.2030959,-0.269737 -0.2009646,-0.159861 -0.3939118,0.180234 -0.2030959,0.269737 z m 3.0148481,1.623799 c 0.1077779,-0.190888 -0.4446979,-0.257456 -0.07249,-0.06761 0.034239,0.01138 0.026513,0.0808 0.07249,0.06761 z"
       id="path2"
       inkscape:connector-curvature="0"
       style="stroke-width:0.03611892"
       sodipodi:nodetypes="cccccccccccccccccccccccccccccccccccccccccccccccccccccccccccccccccccccccccccccccccccccccccccccccccccccccccccccccccccccccccccccccccccccccccccccccccccccccccccccccccccccccccccccccccccccccccccccccccccccccccccccccccccccccccccccccccccccccccccccccccccccccccccccccccccccccccccccccccccccccccccccccccccccccccccccccccccccccccccccccccccccccccccccccccccccccccccccccccccccccccccccccccccccccccccccccccccccccccccccccccccccccccccccccccccccccccccccccccccccccccccccccccccccc" />
  </g>
</svg>
