<?xml version="1.0" encoding="UTF-8" standalone="no"?>
<svg
   xmlns:dc="http://purl.org/dc/elements/1.1/"
   xmlns:cc="http://creativecommons.org/ns#"
   xmlns:rdf="http://www.w3.org/1999/02/22-rdf-syntax-ns#"
   xmlns:svg="http://www.w3.org/2000/svg"
   xmlns="http://www.w3.org/2000/svg"
   xmlns:sodipodi="http://sodipodi.sourceforge.net/DTD/sodipodi-0.dtd"
   xmlns:inkscape="http://www.inkscape.org/namespaces/inkscape"
   width="512"
   height="512"
   viewBox="0 0 67.389203 67.3792"
   preserveAspectRatio="xMinYMin meet"
   version="1.1"
   id="svg4"
   sodipodi:docname="flask.svg"
   inkscape:version="0.92.3 (2405546, 2018-03-11)">
  <metadata
     id="metadata10">
    <rdf:RDF>
      <cc:Work
         rdf:about="">
        <dc:format>image/svg+xml</dc:format>
        <dc:type
           rdf:resource="http://purl.org/dc/dcmitype/StillImage" />
        <dc:title></dc:title>
      </cc:Work>
    </rdf:RDF>
  </metadata>
  <defs
     id="defs8" />
  <sodipodi:namedview
     pagecolor="#ffffff"
     bordercolor="#666666"
     borderopacity="1"
     objecttolerance="10"
     gridtolerance="10"
     guidetolerance="10"
     inkscape:pageopacity="0"
     inkscape:pageshadow="2"
     inkscape:window-width="1366"
     inkscape:window-height="703"
     id="namedview6"
     showgrid="false"
     inkscape:snap-bbox="true"
     inkscape:bbox-paths="true"
     inkscape:bbox-nodes="true"
     inkscape:snap-bbox-edge-midpoints="true"
     inkscape:snap-bbox-midpoints="true"
     inkscape:object-paths="true"
     inkscape:snap-intersection-paths="true"
     inkscape:snap-smooth-nodes="true"
     inkscape:snap-midpoints="true"
     inkscape:snap-object-midpoints="true"
     inkscape:snap-center="true"
     inkscape:snap-text-baseline="true"
     inkscape:snap-page="true"
     inkscape:zoom="0.7552"
     inkscape:cx="251.23639"
     inkscape:cy="275.89162"
     inkscape:window-x="0"
     inkscape:window-y="0"
     inkscape:window-maximized="1"
     inkscape:current-layer="layer1" />
  <g
     inkscape:groupmode="layer"
     id="layer1"
     inkscape:label="logo">
    <path
       d="m 23.774631,50.870248 c -1.878096,-1.477433 -3.881975,-2.893225 -5.250956,-4.888243 -2.881865,-3.5181 -5.100134,-7.590384 -6.61667,-11.87051 -0.916894,-2.783428 -1.230873,-5.767381 -2.4135905,-8.442749 -1.2354961,-1.943778 0.2128506,-4.067083 2.3417425,-4.684639 0.947136,-0.182608 2.613536,-1.076773 0.601952,-0.436873 -1.80374,1.322563 -1.977487,-1.201979 -0.128288,-1.361857 1.262079,-0.167392 1.72669,-1.200053 1.294633,-2.129663 -1.35531,-0.884147 3.285215,-1.854207 0.950027,-3.17311 -2.430928,-2.623551 3.401756,-3.128614 1.962459,-0.148513 -0.344029,2.291274 4.077106,-0.420886 3.050417,2.225588 1.043059,1.271132 3.90489,0.289902 3.833043,2.072066 1.51903,0.104405 2.040469,1.381699 3.464929,1.479938 1.478781,0.667638 4.156851,1.192733 4.659216,2.857976 -1.465879,1.160179 -4.859347,-2.396832 -5.023274,0.815189 0.443419,4.745894 0.330355,9.634521 2.066098,14.153693 0.820968,2.736044 2.812321,4.889783 4.609706,7.021179 1.720716,2.086897 4.050904,3.55701 6.426546,4.793856 2.08324,0.982386 4.329238,1.633458 6.600286,2.042979 0.920753,-0.704237 2.546696,-3.32278 3.982522,-2.219424 0.06933,1.242238 -2.850079,2.59485 -0.136953,2.457509 1.594548,-0.481177 2.699247,1.231643 4.011608,-0.313787 1.209295,1.432359 5.025583,-0.91439 4.165515,2.012932 -1.163848,0.750851 -2.860481,0.297219 -4.025478,1.330266 -1.920858,-0.95985 -3.450298,0.857759 -5.577651,0.628536 -2.361583,0.423004 -4.765153,0.593284 -7.159289,0.596751 -3.928774,-0.309933 -7.940383,-0.440725 -11.677697,-1.808747 -2.105962,-0.611778 -4.160308,-1.81106 -6.010853,-3.010343 z m 3.317767,1.438523 c 2.055697,0.888001 4.066124,1.825121 6.319451,2.108472 3.574729,0.496395 7.266385,1.26208 10.853638,0.564392 -1.623442,-0.732938 -3.302557,0.284699 -4.919827,-0.52394 -1.939737,0.41684 -4.021625,-0.107098 -5.994496,-0.36541 -2.242154,-0.998568 -4.662672,-1.685082 -6.762474,-2.982796 -2.625102,-0.958309 1.356649,1.229526 2.065703,1.407318 1.640014,0.930378 -1.803931,-0.47771 -2.290304,-0.86431 -1.373801,-0.770884 -1.548708,-0.609656 -0.135613,0.172593 0.284504,0.166429 0.565551,0.341524 0.863922,0.483681 z m -3.912211,-2.764745 c 1.992706,0.738139 -0.0087,-1.400768 -0.920744,-1.277104 -0.404511,-0.701733 -1.545434,-1.145155 -0.740641,-1.521735 -1.447193,0.50275 -1.516539,-1.910841 -2.196506,-1.565464 -1.531749,-0.48368 -0.59598,-2.196887 -2.421101,-3.249581 -0.166429,-1.108749 -1.812603,-2.069756 -2.336541,-3.741354 -0.231732,-0.856411 -1.860375,-3.313728 -0.860267,-1.026692 0.851402,2.201704 2.349062,4.088849 3.596115,5.971951 0.967369,1.793338 2.11117,3.66912 3.873305,4.787692 0.594638,0.570555 1.167499,1.443339 2.006187,1.622287 z m -5.738489,-6.301724 c 0.06896,-0.301073 0.364059,0.651072 0,0 z m 8.125498,7.185872 c 0.440724,-0.197634 -0.634889,-0.249257 0,0 z m 1.080624,0.394496 c -0.111912,-0.544359 -0.493693,0.304732 0,0 z m 1.354158,0.564392 c 0.643559,-0.613896 -0.993943,-0.387177 0,0 z m 2.320163,1.293089 c 0.39161,-0.578066 -1.253406,-0.217665 0,0 z m -4.455029,-3.105689 c 0.999728,-0.647606 -1.293667,-0.0092 0,0 z m 1.01513,0.506216 c -0.02907,-0.341523 -0.361556,0.153522 0,0 z m 5.074708,3.167718 c 0.816148,0.515272 4.765153,1.128589 2.292622,0.211502 -0.414719,0.08707 -4.585051,-1.180213 -2.292622,-0.211502 z m -8.056151,-6.275143 c -0.07937,-0.342294 -1.267476,-0.379086 0,0 z m 2.361583,1.378232 c 0.615815,-0.429553 -1.275947,-0.331315 0,0 z m 1.9875,1.217968 c 0.882994,-0.332471 -1.430623,-0.33382 0,0 z m -5.311438,-3.642922 c 0.957344,0.734093 3.86213,0.09439 1.466073,-0.438222 -1.08949,-0.580764 -3.545653,-0.978535 -1.871356,0.350192 z m 6.658276,4.063422 c 0.399112,-0.679004 -1.672954,-0.38814 0,0 z m -2.023144,-1.607455 c 2.340395,0.661474 -1.968622,-1.481286 -0.577874,-0.244248 l 0.308781,0.139845 z m 4.056293,2.344246 c 2.216727,0.02119 -2.002913,-0.30589 0,0 z m -9.543981,-6.082712 c -0.0871,-0.412986 -0.546671,0.0343 0,0 z m 13.293627,8.186175 c 0.05909,-0.745459 -0.723125,0.55553 0,0 z M 25.869614,46.96054 c -0.134831,-0.392954 -0.692677,-0.01637 0,0 z m -3.573571,-2.57578 c 1.272479,-0.07668 -1.743256,-0.560537 0,0 z m -4.233518,-2.736044 c -0.158528,-0.610621 -1.384203,-1.096806 0,0 z m 11.113499,7.05277 c -0.233082,-0.266016 -0.109802,0.05779 0,0 z m 6.916193,4.244874 c -0.02116,-0.407016 -0.376574,0.15333 0,0 z m -7.528358,-4.877262 c 0.124825,-0.52394 -1.085627,-0.158917 0,0 z M 23.410757,44.80295 c 0.947328,-0.100936 -1.517882,-0.639901 0,0 z m 8.716666,5.416419 c 1.476088,-0.584617 -1.43852,-0.284892 0,0 z M 27.594,47.142186 c 1.700292,0.218822 -2.02411,-1.157676 -0.374081,-0.123666 z m 5.909725,3.633676 c 1.58858,-0.948291 1.064643,2.223276 2.694632,0.268326 1.607074,-1.173855 -1.388246,1.451045 0.591933,0.209192 1.433326,-0.958695 3.549312,0.454595 4.885933,0.91439 0.96081,-0.04661 1.895624,0.831368 2.881668,0.297028 1.896977,-0.51142 -3.710535,-0.757978 -2.240803,-1.663895 -1.73555,0.505447 -3.017667,-0.601952 -3.871758,-1.714169 -1.947442,-0.449779 -4.19826,-1.444686 -5.170629,-3.169065 -0.396815,-0.646063 0.572088,0.09208 -0.342495,-0.966014 -1.172693,-1.043064 -1.758272,-2.228478 -2.54573,-3.496719 -0.940965,-0.501404 -1.051731,-1.978836 -1.146312,-0.04893 0.0078,-1.21816 -1.136103,-2.038164 -1.415788,-1.697988 -0.0048,-1.172895 1.224514,-0.584618 0.364059,-1.452393 -0.184922,-1.215656 -0.79477,-2.48255 -0.977576,-3.855581 -0.28431,-0.661281 -0.04047,-2.078228 -0.972176,-0.580763 -0.339017,1.583377 -0.11211,-1.94474 0.415684,-0.782056 0.692685,-1.186569 -0.249642,-1.046918 -0.287391,-0.882993 0.451126,-1.001265 0.286049,-2.422258 -0.118272,-1.880597 0.240584,-1.061942 0.380426,-3.907204 -0.358864,-3.402142 0.448239,-1.110868 0.850248,-5.081446 -1.097388,-3.567029 -0.788414,0.01111 -2.154894,0.286048 -2.799797,0.607154 2.024102,1.116069 -0.204185,0.402972 -1.029199,0.225371 -0.107098,1.032856 -0.923255,0.586929 -1.943581,0.596945 1.62999,0.201486 -0.793619,1.666206 -1.726697,1.097192 -1.214307,0.579417 1.04673,2.027956 0.02386,2.476194 0.126168,0.673994 -1.859221,-0.244055 -1.704157,1.315242 -1.177904,-0.496587 -0.161234,1.849007 0.428199,1.055584 2.004075,0.542819 1.410789,1.778507 1.461063,2.953518 -0.326303,0.683817 -1.612272,-1.608418 -0.286052,-1.502474 -1.046718,-1.699529 -1.157281,-0.614857 -2.026601,0.174905 -0.201483,0.05683 2.216923,1.123386 0.699231,1.650024 1.335075,0.206687 1.374187,1.375534 1.646362,2.115021 0.802281,0.835993 0.637012,-0.923637 1.598401,0.08185 -0.608689,-0.895698 -3.219721,-2.523377 -1.117223,-2.001364 -0.01161,-0.900715 -0.38063,-1.627681 0.264281,-1.610151 0.638741,-1.154979 -0.668793,2.849307 0.769728,1.380734 0.397771,-0.173748 0.497557,-1.156326 1.212964,0.09323 1.039012,1.022838 0.375424,1.763096 -1.090842,0.826168 0.261975,0.890505 1.961118,1.207759 1.641172,2.599859 0.338633,1.224323 0.81249,0.773196 1.22548,0.702696 0.323605,1.189074 0.507946,0.314941 0.522972,-0.251953 1.482441,0.317831 1.134752,1.194273 1.599369,1.806436 1.021484,0.460759 -1.46222,-3.125148 0.291243,-1.078314 1.844964,1.666398 0.692685,2.361581 -0.963503,2.094795 1.047876,-0.08476 1.385166,1.417142 2.696746,1.364171 1.195233,0.569206 2.005221,2.753379 -0.05553,1.843805 -0.714259,-0.644908 -3.244963,-1.439679 -1.177706,-0.214007 1.906981,0.884148 3.42352,1.411941 5.263664,2.521846 1.3164,0.939624 1.885417,2.016206 2.384315,2.22944 -1.107016,0.528756 -3.33511,-0.422041 -1.680274,-0.712904 -1.032851,-0.187809 -2.193994,-0.710401 -1.205439,0.575564 0.841382,0.702888 2.978942,0.628342 3.363231,0.707703 -0.324966,0.715602 -0.882801,0.772426 0.01256,0.827709 -0.998956,0.5328 0.321296,0.616014 0.413172,0.919398 z m -2.042979,-5.770079 c -0.608312,-0.636048 -0.765682,-1.826277 -0.108258,-0.791303 0.337676,0.136186 1.079669,1.946474 0.108258,0.791303 z m 6.654615,4.227153 c 0.379085,-0.02504 0.01123,0.288167 0,0 z m -7.614074,-5.786452 c -0.02424,-0.961198 0.218817,0.741606 0,0 z m -0.661483,-0.889349 c -0.765681,-1.477433 0.963515,0.418189 0,0 z M 21.823721,37.02514 c 0.449783,-0.120001 0.221714,0.767995 0,0 z m 6.379934,3.457426 c 0.27584,-1.036708 0.323797,0.869316 0,0 z m -4.50685,-3.134008 c -0.31725,-0.571712 0.663985,0.536845 0,0 z m 3.866949,1.239542 c -0.724273,-1.622289 0.513925,-0.886847 0.161224,0.265822 z m -6.669449,-4.44771 c -0.323604,-0.532609 -0.859103,-2.094602 -0.686512,-2.571735 0.154867,0.777049 1.651369,3.342812 0.732933,1.063098 -1.013778,-1.91084 1.213157,0.619479 1.442384,1.096997 0.107097,0.473665 -0.626032,-0.129638 -0.129838,0.982386 -0.905524,-1.26593 -0.534146,0.69923 -1.358967,-0.570746 z m -2.0607,-1.420608 c 0.0844,-1.238194 0.471164,0.848897 0,0 z m 0.927107,0.319757 c 0.442078,-0.934231 0.749314,1.302529 0,0 z m -2.230787,-1.725342 c -0.76723,-0.763565 -1.322757,-1.46626 0.0364,-0.473856 0.52278,0.02023 -1.163658,-1.598209 0.126168,-0.513924 1.355114,0.247138 0.6686,2.223469 -0.162575,0.98778 z m 1.171352,-0.03024 c 0.446113,-0.442074 0.236923,0.434563 0,0 z m 0.72176,0.23038 c -0.676499,-1.26593 0.820002,0.531644 0,0 z m -1.433315,-1.368981 c -2.230609,-1.986734 2.8025,1.03767 0.364058,0.367528 z m 6.392255,3.713036 c -0.966016,-0.57826 -0.256963,-4.074594 0.0732,-1.683925 0.938464,-0.30377 -0.05204,1.235688 0.647219,1.220471 -0.109418,0.970828 -0.423005,1.32025 -0.720419,0.463454 z m 2.364277,1.398072 c 0.09436,-1.054043 0.198981,0.720803 0,0 z M 26.335765,34.84964 c 0.105751,-0.449587 0.01,0.530296 0,0 z m -7.909172,-5.356898 c -1.433135,-1.97768 4.165513,2.000024 0.918436,0.501404 -0.339027,-0.08937 -0.748154,-0.120965 -0.918436,-0.501404 z m 4.553453,2.413591 c -0.135797,-1.665242 0.302428,0.275453 0,0 z m 3.456277,2.21769 c 0.266976,-0.948293 0.02038,0.627571 0,0 z M 18.647148,28.73823 c 0.851591,-0.182608 3.529274,1.495154 1.070611,0.478673 -0.273148,-0.302422 -0.856419,-0.16508 -1.070611,-0.478866 z m 7.314158,3.645234 c 0.09107,-1.702806 0.509299,-1.016482 0.0038,0.24444 l -0.0038,-0.244632 z m -6.680612,-4.238326 c 0.347486,-0.509108 -0.922289,-2.301291 0.18241,-0.642597 0.477712,0.379086 1.3817,0.634892 0.583272,0.79477 1.255724,1.107401 -0.305894,0.299918 -0.765682,-0.152173 z m 6.319056,3.706873 c 0.239627,-1.939733 0.211884,1.136102 0,0 z m -7.04468,-5.498093 c 0.265827,-0.113642 0.141001,0.353659 0,0 z m 1.648869,0.981231 c 0.424162,-0.890697 0.78206,0.992403 0,0 z m 4.649008,2.585797 c -0.0038,-0.34133 0.08806,0.49755 0,0 z m -0.26968,-0.595595 c -0.644913,-1.592238 0.600991,0.842541 0,0 z m -0.395646,-1.044413 c -0.107875,-0.657622 0.36791,0.826361 0,0 z m 0.644903,-1.04788 c -0.443227,-0.779937 0.559572,-3.43874 0.671679,-1.78987 -0.467494,1.284808 -0.13483,2.002913 0.189934,0.279691 0.602334,-1.355309 -0.129636,2.676716 -0.861613,1.510179 z m 0.66263,-3.95382 c 0.193015,-0.236928 0.04297,0.285663 0,0 z m -1.106823,21.807066 c -0.262157,-0.229223 0.0337,0.145048 0,0 z m 2.279721,1.152669 c 1.268239,0.326306 1.262078,-0.19667 0.115568,-0.352888 -0.615825,-0.572868 -2.561917,-1.181369 -0.81982,-0.07049 0.114816,0.292405 0.478871,0.284699 0.704246,0.42339 z m -4.501654,-2.990502 c 0.697697,0.521821 2.631069,1.476276 0.99491,0.199366 0.551683,-0.641441 -1.055585,-0.98258 -0.522587,-1.41194 -1.35666,-0.830406 -1.070996,-0.756054 -0.119619,-0.729471 -1.62999,-0.72947 0.235389,-0.673994 0.147356,-1.047879 -0.628533,-0.123664 -3.122638,-1.108749 -1.655223,0.08052 -1.491306,-0.759715 -0.355396,0.28335 -0.806135,0.173746 -1.525589,-0.415684 1.358002,1.161528 -0.241936,0.769729 0.874322,0.69268 2.354262,1.776002 0.369069,0.732938 -0.260622,0.376581 1.420995,0.94733 1.833985,1.232992 z m 2.384122,1.370527 c 2.898433,0.93346 -1.422153,-1.142459 0,0 z m 12.205488,7.393714 c 0.03776,-0.575563 -0.395656,0.491194 0,0 z m 1.254566,0.527792 c 0.668793,-0.64722 0.02771,1.032855 1.108359,-0.15853 0.01123,-0.852942 -0.03273,-1.356465 -1.241848,-0.320143 -0.334015,0.185306 -0.482335,0.969866 0.133489,0.478866 z M 18.096624,40.03452 c -0.205529,-0.807485 -1.439875,-0.804017 0,0 z m 1.338746,0.877598 c -0.497557,-0.824819 -1.774845,-0.746806 0,0 z m 7.62178,4.596224 c 0.744687,0.661474 3.417358,0.485028 0.903409,0.08206 -0.371764,-0.550522 -2.363118,-0.418188 -0.903409,-0.08206 z m 10.475906,6.470848 c 1.144959,-0.961198 -1.109518,0.428206 0,0 z m 2.381997,1.635964 c 0.0078,-0.308585 -0.493694,0.134837 0,0 z m 0.0038,-0.432058 c 1.268248,-1.342596 -1.228175,0.07936 0,0 z M 14.801384,37.275745 c -1.080622,-1.54177 -0.671295,-2.234641 -1.714166,-3.494216 -0.198018,-0.963509 -1.788522,-3.147683 -0.822509,-0.833873 0.884149,1.354153 1.146118,3.449912 2.536868,4.328089 z m 24.719365,15.480301 c 2.334235,-1.507867 -0.95715,-0.656273 0,0 z m 1.781208,0.697688 c 1.168841,-1.002806 -0.739492,-0.209191 0,0 z M 17.699627,38.329788 c 0.334004,-0.49755 -0.863925,-0.06413 0,0 z m 23.230567,14.647777 c 1.13109,-0.729086 -0.260623,-0.617171 -0.205153,0.06665 z M 25.578369,43.301438 c -0.03892,-0.493697 -0.598104,0.0416 0,0 z m 0.948488,0.545513 c -0.302234,-0.609657 -0.463457,0.09572 0,0 z m 16.218441,9.623348 c 1.449694,-1.045761 -0.8778,-0.200522 -0.303576,0.198982 z m -0.555344,-0.268325 c 1.181366,-0.988938 -1.245893,0.438221 0,0 z m 2.836212,1.887916 c 0.792655,-0.530297 -0.96332,-0.171243 0,0 z M 18.426593,37.970928 c 1.061744,0.237892 4.24584,2.61604 2.367936,0.16508 -0.962162,-0.2847 -0.385254,-2.636457 -1.366479,-2.220772 0.658778,1.100851 0.541273,1.567966 -0.841769,0.875479 -1.736712,-0.849089 -0.97603,0.419538 -0.63567,0.769731 -0.463833,0.105751 0.611972,0.401814 0.475789,0.41029 z m -4.840669,-3.822641 c 0.190121,-0.787451 -1.752117,-4.328088 -0.916894,-1.774845 0.30088,0.535305 0.269675,1.549089 0.916894,1.774845 z m 8.885017,5.477675 c -0.547822,-0.457098 -0.02636,-0.06549 0,0 z m 1.34645,0.313978 c 0,-0.834065 -1.488602,-0.339019 0,0 z m 11.676539,7.359621 c -0.222864,-0.569593 -0.880301,-0.01272 0,0 z m 0.560538,0.409134 c -0.08344,-0.318601 -0.324,0.06183 0,0 z m 4.62762,2.915957 c 0.44477,-0.328619 -0.555528,-0.04257 0,0 z M 16.003175,34.765458 c 1.273251,-0.492734 -1.364366,-0.351541 0,0 z m 18.462713,11.630691 c -0.01487,-0.823664 -0.812296,0.205531 0,0 z M 15.500424,33.592564 c 0.8175,-0.275454 -0.75702,-0.181067 0,0 z m 2.373144,1.149971 c -0.01411,-0.270637 -0.250608,0.103441 0,0 z m 28.951518,17.753853 c 1.051731,-0.21285 3.448764,0.535497 3.83536,-0.27815 -1.277104,-0.03159 -4.417278,-0.902064 -4.565987,0.2063 l 0.279695,0.04431 0.451124,0.02753 z M 18.627883,34.932848 c 0.01921,-0.835221 -0.651072,-0.03139 0,0 z m -6.239508,-4.329244 c -0.283352,-1.591082 -1.078314,-0.240782 0,0 z m 1.487449,0.374078 c 0.01907,-0.51142 -1.361859,-0.459796 0,0 z m 0.850246,0.418189 c -0.245596,-0.199175 -0.191469,0.250412 0,0 z m 5.351893,3.432382 c 0.252144,-0.23192 -0.596946,-0.171243 0,0 z m -5.917439,-4.37451 c -0.144661,-1.201595 -1.724378,-0.180105 0,0 z m -3.052142,-1.980185 c -0.04296,-0.554182 -0.297413,0.208998 0,0 z m 0.454594,-0.342294 c -0.07416,-0.657814 -0.39045,0.08283 0,0 z m 2.507013,1.496117 c 1.060591,-0.415685 -1.931256,-0.861611 -0.216701,-0.078 z m 33.560275,20.730293 c 0.678808,-0.622179 -0.861613,-0.192626 0,0 z m 4.054555,2.10096 c 0.272183,-0.803438 -0.685355,0.105948 0,0 z M 14.326181,28.313679 c 0.112297,-0.778204 -0.841193,0.154872 0,0 z M 10.75819,25.923205 c -0.191469,-1.098349 -0.165081,-3.026909 1.667747,-2.375645 -2.4463367,0.486186 1.694136,3.041549 1.171353,1.023801 1.029004,0.05067 2.012933,-0.608116 1.472423,0.390451 2.027953,-0.222867 3.432581,-1.981146 5.390995,-1.734202 1.525201,-0.202642 3.19295,-0.3552 4.836817,-0.969867 1.351454,-0.09708 2.65244,-1.551978 1.912185,-2.414745 -1.842848,-0.156027 -3.772755,0.07435 -5.809379,0.48002 -2.256978,0.468465 -4.307474,1.360125 -6.585079,1.743257 -2.220768,0.298568 0.445929,0.82116 -0.19031,0.938276 -1.157676,0.401815 1.381893,0.672646 -0.149857,1.096998 -0.945793,-0.179912 -1.930876,-0.50487 -1.526557,-1.502474 -2.126193,0.276995 -3.9954258,1.158638 -2.314967,3.322588 l 0.124821,0.0012 z m 5.125364,-2.610069 c 0.497546,-1.836293 2.670173,1.51172 0.816148,0.244441 -0.220555,-0.166429 -0.585966,-0.301265 -0.816148,-0.244441 z m 0.0967,-0.890698 c 0.719453,-0.535112 0.381788,0.301266 0,0 z m 0.91324,0.01542 c 0.06587,-0.84524 2.092484,0.447082 0.334006,0.303577 l -0.334006,-0.30377 z m 1.249556,-0.502559 c 0.457296,-0.53434 0.132533,0.473472 0,0 z m 0.320148,-0.214006 c 0.76067,-0.913234 4.303811,-0.583461 1.710317,-0.08976 -0.695379,-0.523939 -1.22799,0.308587 -1.710317,0.08976 z m 4.624924,-0.713098 c -0.11442,-2.495455 2.298783,0.885498 0,0 z m 1.31274,-0.0078 c 0.479632,-1.256878 1.862673,-0.50487 0.222862,-0.253108 0.03505,0.134837 -0.04916,0.650109 -0.222862,0.253108 z m -10.591874,6.668307 c 1.433126,-0.877983 -1.521737,-0.76183 0,0 z m 1.060397,0.293561 c 0.50275,-0.533955 -1.093335,-0.216702 0,0 z M 11.745781,25.74671 c 0.818656,-0.629885 -0.969866,-0.239239 0,0 z m 42.33203,26.482644 c 0.02385,-0.730628 -0.626032,0.328617 0,0 z m -4.301518,-2.936125 c 0.122126,-0.839846 -0.552832,0.0732 0,0 z m 5.484231,3.219725 c 1.145152,0.0038 3.469941,-0.356742 0.97853,-0.355394 -0.391609,0.06068 -2.278368,0.04816 -0.97853,0.355394 z M 15.801692,27.446867 c 0.927098,-0.06299 1.449694,-1.021683 -0.180295,-0.967361 -2.525318,-0.260622 2.228087,0.865463 -0.323615,0.543008 -0.342485,0.226719 0.483484,0.487342 0.50391,0.424353 z m 0.816148,0.413374 c -0.09708,-0.594633 -0.287401,0.315904 0,0 z m 0.968521,-2.582331 c 0.401816,-0.498898 -0.556689,-0.133489 0,0 z m -3.083542,-5.152717 c 1.655225,-0.561695 3.91742,-1.194082 4.698504,0.27738 -0.794961,-0.955997 -0.321103,-1.898318 0.429561,-0.498899 1.061746,1.414638 1.593004,-0.643559 0.90283,-1.118572 0.787449,0.977379 1.681616,1.43987 0.52644,0.06203 1.255918,-1.510372 -2.512791,0.197633 -3.3692,0.179912 -0.411833,0.184918 -4.254893,0.979882 -3.187941,1.098154 z m 0.969869,-1.856327 c 0.94367,-0.711556 3.263643,0.424354 1.774844,-0.708088 -0.146013,-0.128289 -3.259601,0.859107 -1.774844,0.708088 z m 3.440086,0.142157 c 1.103356,0.02773 -0.475973,-1.483788 0.83888,-0.798621 -0.215351,-0.705201 -1.531555,-0.837534 -2.175116,-1.119537 -0.36406,0.644908 0.740256,1.92702 1.336236,1.918158 z m -2.836786,-3.122641 c 0.381778,-0.517584 -0.669952,0.263318 0,0 z m 1.406164,0.336131 c 1.779469,-0.235388 -0.453833,-0.765685 -0.359446,-0.01868 l 0.359253,0.01868 z m -2.625481,-2.052999 c -1.253411,-1.636155 2.356763,0.274684 1.083125,-1.438521 -1.071759,-0.852559 -2.100763,0.961197 -1.083125,1.438521 z m 16.078407,8.65984 c 0.574793,-1.018022 -2.371606,-1.373031 -0.386607,-0.360594 0.182613,0.06068 0.141389,0.430902 0.386607,0.360594 z"
       id="path2"
       inkscape:connector-curvature="0"
       style="stroke-width:0.19262491"
       sodipodi:nodetypes="cccccccccccccccccccccccccccccccccccccccccccccccccccccccccccccccccccccccccccccccccccccccccccccccccccccccccccccccccccccccccccccccccccccccccccccccccccccccccccccccccccccccccccccccccccccccccccccccccccccccccccccccccccccccccccccccccccccccccccccccccccccccccccccccccccccccccccccccccccccccccccccccccccccccccccccccccccccccccccccccccccccccccccccccccccccccccccccccccccccccccccccccccccccccccccccccccccccccccccccccccccccccccccccccccccccccccccccccccccccccccccccccccccccc" />
  </g>
</svg>
