<?xml version="1.0" encoding="UTF-8" standalone="no"?>
<svg
   xmlns:dc="http://purl.org/dc/elements/1.1/"
   xmlns:cc="http://creativecommons.org/ns#"
   xmlns:rdf="http://www.w3.org/1999/02/22-rdf-syntax-ns#"
   xmlns:svg="http://www.w3.org/2000/svg"
   xmlns="http://www.w3.org/2000/svg"
   xmlns:sodipodi="http://sodipodi.sourceforge.net/DTD/sodipodi-0.dtd"
   xmlns:inkscape="http://www.inkscape.org/namespaces/inkscape"
   width="100"
   height="100"
   viewBox="0 0 13.161954 13.16"
   preserveAspectRatio="xMinYMin meet"
   version="1.1"
   id="svg4"
   sodipodi:docname="flask-logo.svg"
   inkscape:version="0.92.3 (2405546, 2018-03-11)">
  <metadata
     id="metadata10">
    <rdf:RDF>
      <cc:Work
         rdf:about="">
        <dc:format>image/svg+xml</dc:format>
        <dc:type
           rdf:resource="http://purl.org/dc/dcmitype/StillImage" />
        <dc:title />
      </cc:Work>
    </rdf:RDF>
  </metadata>
  <defs
     id="defs8" />
  <sodipodi:namedview
     pagecolor="#ffffff"
     bordercolor="#666666"
     borderopacity="1"
     objecttolerance="10"
     gridtolerance="10"
     guidetolerance="10"
     inkscape:pageopacity="0"
     inkscape:pageshadow="2"
     inkscape:window-width="1366"
     inkscape:window-height="709"
     id="namedview6"
     showgrid="false"
     inkscape:snap-bbox="true"
     inkscape:bbox-paths="true"
     inkscape:bbox-nodes="true"
     inkscape:snap-bbox-edge-midpoints="true"
     inkscape:snap-bbox-midpoints="true"
     inkscape:object-paths="true"
     inkscape:snap-intersection-paths="true"
     inkscape:snap-smooth-nodes="true"
     inkscape:snap-midpoints="true"
     inkscape:snap-object-midpoints="true"
     inkscape:snap-center="true"
     inkscape:snap-text-baseline="true"
     inkscape:snap-page="true"
     inkscape:zoom="3.0208"
     inkscape:cx="18.020234"
     inkscape:cy="30.651133"
     inkscape:window-x="0"
     inkscape:window-y="33"
     inkscape:window-maximized="1"
     inkscape:current-layer="layer1"
     inkscape:snap-global="true" />
  <g
     inkscape:groupmode="layer"
     id="layer1"
     inkscape:label="logo"
     transform="translate(0,-54.22725)">
    <path
       d="M 4.4952123,64.419565 C 4.1003256,64.108921 3.6789928,63.811237 3.3911515,63.391768 2.7852128,62.652055 2.3188019,61.79582 1.999937,60.895886 1.8071513,60.310644 1.7411345,59.683242 1.4924577,59.120722 c -0.2597745,-0.408698 0.044755,-0.855142 0.4923722,-0.98499 0.1991442,-0.03839 0.5495196,-0.2264 0.1265662,-0.09186 -0.3792526,0.278081 -0.4157846,-0.252726 -0.026971,-0.286342 0.2653636,-0.0352 0.3630527,-0.252322 0.2722082,-0.447781 -0.2849663,-0.185899 0.6907461,-0.389864 0.1997519,-0.667175 -0.5111246,-0.551626 0.7152504,-0.65782 0.4126253,-0.03123 -0.072336,0.481763 0.857248,-0.08849 0.641377,0.467951 0.2193138,0.267266 0.8210393,0.06096 0.8059322,0.435671 0.3193899,0.02194 0.4290268,0.290514 0.7285333,0.31117 0.3109267,0.140377 0.8740148,0.250783 0.9796421,0.600915 -0.3082142,0.243939 -1.0217214,-0.503955 -1.0561887,0.171401 0.093229,0.997867 0.069463,2.025746 0.4344163,2.975942 0.1726152,0.575279 0.5913156,1.028123 0.969232,1.476267 0.3617954,0.438788 0.8517396,0.747893 1.3512398,1.00795 0.4380196,0.206558 0.9102613,0.343451 1.3877698,0.429556 0.1935959,-0.148072 0.5354653,-0.698644 0.8373607,-0.466654 0.01458,0.261192 -0.5992546,0.545591 -0.0288,0.516714 0.335268,-0.101178 0.567542,0.258964 0.843477,-0.06598 0.254265,0.301167 1.056674,-0.192259 0.875837,0.423237 -0.24471,0.157874 -0.601442,0.06249 -0.846392,0.2797 -0.403879,-0.201811 -0.725457,0.180358 -1.172752,0.132162 -0.4965443,0.08894 -1.0019172,0.124743 -1.505306,0.125472 C 7.3883308,65.367656 6.5448539,65.340152 5.7590503,65.052516 5.3162525,64.923884 4.884308,64.671724 4.4952142,64.419564 Z m 0.6975915,0.302463 c 0.4322279,0.186709 0.8549389,0.383748 1.3287212,0.443325 0.7516187,0.104373 1.5278227,0.265363 2.2820758,0.118668 C 8.4622572,65.129914 8.1092075,65.343881 7.7691622,65.173862 7.3613149,65.261502 6.9235786,65.151342 6.508766,65.097032 6.0373327,64.887075 5.5283964,64.742729 5.086894,64.469873 4.5349426,64.268381 5.3721418,64.728392 5.5212266,64.765775 5.8660547,64.961395 5.141934,64.665326 5.0396696,64.584046 4.7508155,64.42196 4.7140391,64.45586 5.0111576,64.620336 c 0.059819,0.035 0.1189122,0.0718 0.181648,0.101693 z M 4.3702257,64.140715 C 4.7892105,64.295914 4.3684188,63.846189 4.1766307,63.872192 4.09158,63.724646 3.8516887,63.631412 4.0209041,63.552233 3.7166185,63.657941 3.7020382,63.150461 3.5590686,63.22308 3.2370043,63.121382 3.4337587,62.761165 3.0500106,62.539826 3.0150126,62.306701 2.6688939,62.104641 2.5587312,61.753173 2.5100097,61.573105 2.1675707,61.056432 2.3778525,61.537303 c 0.1790156,0.462927 0.4939118,0.859717 0.7561161,1.255655 0.2033972,0.377066 0.4438924,0.771466 0.8143974,1.006656 0.1250274,0.119965 0.2454765,0.303475 0.4218188,0.341101 z M 3.1636561,62.81572 c 0.014503,-0.0633 0.076549,0.136894 0,0 z m 1.7084587,1.510895 c 0.092669,-0.04154 -0.1334906,-0.05241 0,0 z m 0.2272121,0.08294 c -0.023538,-0.114458 -0.1038047,0.06407 0,0 z m 0.2847238,0.118669 c 0.1353138,-0.129079 -0.2089855,-0.08141 0,0 z m 0.4878348,0.271883 c 0.08234,-0.121545 -0.2635396,-0.04577 0,0 z M 4.9351749,64.147118 c 0.2102028,-0.136165 -0.2720047,-0.002 0,0 z m 0.2134411,0.106436 c -0.00609,-0.0718 -0.076016,0.03228 0,0 z m 1.0670029,0.666042 c 0.1716023,0.108343 1.0019171,0.237296 0.4820448,0.04447 -0.0872,0.01831 -0.9640488,-0.248151 -0.4820448,-0.04447 z M 4.5217403,63.600189 c -0.016691,-0.07198 -0.2664982,-0.0797 0,0 z m 0.4965444,0.289786 c 0.1294811,-0.09032 -0.2682795,-0.06967 0,0 z m 0.4178902,0.256088 c 0.1856575,-0.0699 -0.300802,-0.07018 0,0 z M 4.319396,63.380103 c 0.2012915,0.154349 0.8120481,0.01985 0.3082551,-0.09214 -0.2290742,-0.12211 -0.7455045,-0.205745 -0.3934686,0.07363 z m 1.399963,0.854372 c 0.083919,-0.142767 -0.3517536,-0.08161 0,0 z M 5.2939747,63.896493 c 0.4920897,0.139082 -0.4139197,-0.311454 -0.121503,-0.05136 l 0.064927,0.0294 z m 0.8528732,0.492898 c 0.4660866,0.0045 -0.4211313,-0.06432 0,0 z M 4.1401397,63.110446 c -0.018317,-0.08682 -0.1149428,0.0072 0,0 z m 2.7951052,1.721218 c 0.012421,-0.156739 -0.1520443,0.116805 0,0 z M 4.9357018,63.597512 c -0.028351,-0.08262 -0.145642,-0.0035 0,0 z M 4.1843256,63.055933 c 0.267551,-0.01613 -0.3665345,-0.11786 0,0 z M 3.2941909,62.480654 c -0.033334,-0.128389 -0.2910415,-0.230613 0,0 z m 2.3367135,1.482909 c -0.049006,-0.05593 -0.023081,0.01215 0,0 z m 1.4541918,0.892523 c -0.00447,-0.08558 -0.079174,0.03224 0,0 z M 5.5021908,63.830597 c 0.026248,-0.110159 -0.228262,-0.03341 0,0 z M 4.4187046,63.143861 c 0.1991842,-0.02122 -0.3191483,-0.134545 0,0 z m 1.8327587,1.138851 c 0.3103599,-0.122921 -0.3024625,-0.0599 0,0 z M 5.2982695,63.635705 c 0.3575015,0.04601 -0.4255879,-0.243411 -0.07865,-0.026 z m 1.2425738,0.764014 c 0.334013,-0.199387 0.2238501,0.467464 0.5665708,0.05641 0.3379017,-0.246813 -0.2918918,0.305095 0.1244586,0.04398 0.3013698,-0.201574 0.746275,0.09558 1.0273116,0.192259 0.2020192,-0.0098 0.3985719,0.174802 0.6058969,0.06246 C 9.2639374,64.647296 8.0849077,64.595453 8.3939323,64.404977 8.0290165,64.511252 7.7594408,64.278411 7.5798592,64.044556 7.1703924,63.949986 6.6971378,63.740799 6.4926878,63.378232 6.4092538,63.242392 6.6129753,63.397596 6.4206756,63.17512 6.1741064,62.955806 6.0509828,62.706562 5.8854129,62.439903 5.6875669,62.334479 5.664277,62.023834 5.644391,62.429612 5.6460077,62.173482 5.4055145,62.001069 5.3467084,62.072594 5.3457573,61.825983 5.6041728,61.949673 5.423257,61.767215 5.3843788,61.511613 5.2561493,61.245236 5.2177123,60.956544 5.15794,60.817505 5.2092481,60.519578 5.0133031,60.834433 c -0.071279,0.33292 -0.023576,-0.408898 0.0874,-0.164434 0.1456439,-0.249487 -0.052487,-0.220122 -0.060428,-0.185656 0.094856,-0.210526 0.060143,-0.509302 -0.02486,-0.395414 0.050585,-0.223282 0.079991,-0.821524 -0.075455,-0.715331 0.094247,-0.233569 0.1787721,-1.068419 -0.2307356,-0.749999 -0.1657717,0.0022 -0.4530861,0.06014 -0.5886823,0.127659 0.425585,0.234664 -0.04293,0.08473 -0.2163988,0.04738 -0.022521,0.217167 -0.1941228,0.123406 -0.4086556,0.125513 0.3427206,0.04236 -0.1668653,0.350334 -0.3630537,0.230694 -0.2553188,0.121828 0.2200841,0.426397 0.00505,0.520643 0.026524,0.141713 -0.390918,-0.05132 -0.3583137,0.276541 -0.247665,-0.104418 -0.033905,0.38877 0.090035,0.221947 0.4213748,0.114131 0.2966317,0.373947 0.3072015,0.621003 -0.068607,0.143779 -0.3389945,-0.338184 -0.060144,-0.315909 -0.2200821,-0.357341 -0.2433291,-0.129279 -0.4261108,0.03678 -0.042368,0.01194 0.4661284,0.236202 0.1470191,0.346933 0.2807122,0.04345 0.2889358,0.289219 0.3461623,0.444702 0.1686874,0.175775 0.1339377,-0.194203 0.3360785,0.0172 -0.1279822,-0.188329 -0.676975,-0.530563 -0.2349068,-0.420805 -0.00238,-0.189383 -0.080029,-0.342234 0.055568,-0.338549 0.1343009,-0.242844 -0.1406196,0.599093 0.1618428,0.290312 0.083634,-0.03654 0.1046154,-0.243127 0.2550365,0.0196 0.2184615,0.215061 0.078936,0.370707 -0.2293595,0.17371 0.055084,0.187236 0.4123428,0.253941 0.3450715,0.546644 0.071194,0.257425 0.1708329,0.162572 0.2576679,0.147748 0.068047,0.250013 0.1068008,0.06621 0.1099596,-0.05297 0.311697,0.06683 0.2385931,0.251107 0.3362831,0.379819 0.2147753,0.09688 -0.3074449,-0.65709 0.061237,-0.226724 0.3879203,0.350375 0.145643,0.496543 -0.202586,0.44045 0.2203256,-0.01782 0.2912441,0.297966 0.5670159,0.286828 0.2513082,0.119681 0.4216163,0.578924 -0.011679,0.387677 -0.1501803,-0.135599 -0.6822828,-0.302706 -0.247624,-0.04499 0.4009608,0.185901 0.7198267,0.296873 1.1067332,0.530241 0.2767856,0.197565 0.3964264,0.423925 0.5013242,0.46876 -0.2327603,0.111179 -0.7012369,-0.08874 -0.3532932,-0.149895 -0.2171663,-0.03948 -0.4613067,-0.149368 -0.2534538,0.121018 0.1769072,0.147789 0.6263488,0.132115 0.7071494,0.148802 -0.068323,0.150462 -0.1856177,0.162408 0.00266,0.174033 -0.2100403,0.112021 0.067552,0.129522 0.086877,0.193311 z M 6.1112878,63.186508 C 5.9833844,63.052773 5.9502962,62.802516 6.0885294,63.02013 c 0.071004,0.02864 0.2270104,0.409263 0.022758,0.166378 z m 1.3991927,0.888796 c 0.079706,-0.0053 0.00229,0.06059 0,0 z M 5.909553,62.858651 c -0.00514,-0.202101 0.046011,0.155929 0,0 z M 5.7704703,62.671657 c -0.1609917,-0.310643 0.2025878,0.08793 0,0 z M 4.0850159,61.508505 c 0.09457,-0.02523 0.046619,0.161479 0,0 z m 1.3414394,0.726956 c 0.057994,-0.217978 0.068075,0.182781 0,0 z M 4.4788488,61.576506 c -0.066705,-0.120207 0.1396087,0.112878 0,0 z M 5.29191,61.837132 C 5.139625,61.49603 5.3999667,61.650664 5.325804,61.893022 Z M 3.8895979,60.901961 c -0.068047,-0.111987 -0.1806343,-0.44041 -0.1443449,-0.540732 0.032563,0.163382 0.3472143,0.702858 0.1541054,0.223528 -0.2131559,-0.401773 0.2550772,0.13025 0.3032746,0.230652 0.022521,0.0996 -0.1316286,-0.02726 -0.027294,0.206555 -0.1903952,-0.266173 -0.1123096,0.14702 -0.2857361,-0.120003 z M 3.4563172,60.603265 c 0.017746,-0.260341 0.099066,0.178489 0,0 z m 0.194933,0.06722 c 0.092954,-0.196431 0.1575499,0.273869 0,0 z M 3.1822069,60.307724 c -0.161317,-0.160546 -0.2781218,-0.308295 0.0076,-0.09963 0.1099192,0.0043 -0.2446691,-0.336037 0.026524,-0.108051 0.2849246,0.05196 0.1405788,0.467505 -0.03418,0.20769 z m 0.2462868,-0.0064 c 0.0938,-0.09296 0.049815,0.09137 0,0 z m 0.1517563,0.04843 c -0.1422393,-0.266173 0.1724135,0.111785 0,0 z M 3.2788831,60.061968 c -0.4690053,-0.417728 0.5892509,0.21818 0.076549,0.07728 z m 1.344029,0.780699 c -0.2031128,-0.121583 -0.054028,-0.856719 0.015388,-0.354059 0.1973201,-0.06387 -0.010933,0.259813 0.1360831,0.256615 -0.023005,0.204125 -0.08894,0.277593 -0.1514747,0.09744 z m 0.4971111,0.293959 c 0.019838,-0.221623 0.041836,0.151555 0,0 z m -0.086306,-0.08554 c 0.022235,-0.09454 0.0021,0.111493 0,0 z M 3.3707413,59.92475 c -0.3013287,-0.415824 0.8758379,0.420524 0.19311,0.105427 -0.071279,-0.01879 -0.1573054,-0.02543 -0.19311,-0.105427 z m 0.957405,0.50748 c -0.02855,-0.350132 0.063586,0.05792 0,0 z m 0.7267141,0.466288 c 0.05613,-0.199386 0.00428,0.131954 0,0 z M 3.4171128,59.766107 c 0.1790545,-0.03839 0.7420618,0.31437 0.2251054,0.10065 -0.057433,-0.06359 -0.1800693,-0.03471 -0.2251054,-0.100684 z m 1.5378674,0.766444 c 0.019144,-0.35803 0.1070856,-0.213725 8.273e-4,0.05139 l -8.273e-4,-0.05144 z M 3.550321,59.641404 c 0.073058,-0.107042 -0.1939193,-0.483866 0.038355,-0.135112 0.1004428,0.0797 0.2905155,0.133492 0.1226394,0.167108 0.2640264,0.232841 -0.064318,0.06306 -0.1609926,-0.03199 z m 1.3286394,0.779404 c 0.050386,-0.407846 0.044556,0.238877 0,0 z M 3.3977526,59.264784 c 0.055893,-0.02389 0.029643,0.07437 0,0 z m 0.3466893,0.206313 c 0.089188,-0.187276 0.1644353,0.208662 0,0 z m 0.9774964,0.543688 c -8.264e-4,-0.07177 0.018516,0.10462 0,0 z m -0.0567,-0.12523 c -0.1355982,-0.334781 0.1263646,0.177152 0,0 z M 4.582051,59.669958 c -0.022682,-0.138271 0.077357,0.173749 0,0 z m 0.1355963,-0.220327 c -0.093191,-0.163988 0.117655,-0.723026 0.1412273,-0.376336 -0.098295,0.270142 -0.028351,0.42113 0.039934,0.0588 0.126646,-0.284966 -0.027256,0.562805 -0.1811622,0.317529 z m 0.1393242,-0.831326 c 0.040581,-0.04982 0.00904,0.06006 0,0 z m -0.2327194,4.585134 c -0.055122,-0.04819 0.00704,0.0305 0,0 z m 0.4793317,0.242359 c 0.2666598,0.0686 0.2653636,-0.04136 0.024299,-0.0742 -0.129483,-0.120451 -0.5386665,-0.248393 -0.1723745,-0.01481 0.024147,0.06148 0.1006862,0.05986 0.1480738,0.08902 z M 4.157067,62.817017 c 0.1466978,0.109722 0.5532069,0.3104 0.2091891,0.04193 0.1159965,-0.134869 -0.2219452,-0.206597 -0.1098788,-0.296874 -0.2852498,-0.1746 -0.2251864,-0.158967 -0.025155,-0.153377 -0.3427196,-0.153379 0.049492,-0.141714 0.030984,-0.220327 -0.1321544,-0.026 -0.656563,-0.233125 -0.3480254,0.01693 -0.313561,-0.159737 -0.074723,0.05959 -0.1694978,0.03654 -0.3207688,-0.0874 0.2855323,0.244221 -0.050871,0.161843 0.1838336,0.145641 0.4950046,0.37342 0.077605,0.154106 -0.054798,0.07919 0.2987763,0.199185 0.3856122,0.259248 z m 0.5012834,0.288166 c 0.6094223,0.196268 -0.2990197,-0.240212 0,0 z m 2.5663155,1.554595 c 0.00798,-0.121017 -0.083187,0.103274 0,0 z m 0.263783,0.110967 c 0.1406195,-0.136083 0.0059,0.217168 0.2330428,-0.03334 0.00229,-0.179339 -0.00694,-0.285209 -0.2611096,-0.06731 -0.070224,0.03897 -0.1014151,0.203923 0.028064,0.100684 z m -4.1870881,-2.62949 c -0.043215,-0.169781 -0.3027459,-0.169052 0,0 z m 0.2814836,0.184523 c -0.1046165,-0.173426 -0.3731775,-0.157024 0,0 z m 1.602548,0.966397 c 0.156577,0.139082 0.7185305,0.101985 0.1899497,0.01726 -0.078165,-0.115751 -0.4968668,-0.08792 -0.1899497,-0.01726 z m 2.2026542,1.360555 c 0.2407385,-0.202101 -0.2332854,0.09003 0,0 z m 0.5008373,0.343976 c 0.00161,-0.06489 -0.1038046,0.02835 0,0 z m 8.264e-4,-0.09084 c 0.2666608,-0.282293 -0.2582357,0.01668 0,0 z m -5.281204,-3.34467 C 2.3812962,61.237027 2.4673598,61.091343 2.2480879,60.826507 2.2064518,60.62392 1.8720346,60.164678 2.0751475,60.651177 c 0.1859001,0.284724 0.2409811,0.725376 0.5333996,0.91002 z m 5.1974703,3.254873 c 0.4907935,-0.317042 -0.2012498,-0.137987 0,0 z m 0.3745146,0.146696 c 0.24576,-0.210848 -0.1554843,-0.04398 0,0 z M 3.2178877,61.782819 c 0.070224,-0.104619 -0.1816481,-0.01348 0,0 z m 4.8844372,3.079829 c 0.2378217,-0.153298 -0.054798,-0.129766 -0.04313,0.01402 z m -3.22786,-2.034495 c -0.00817,-0.103801 -0.125757,0.0087 0,0 z m 0.1994286,0.1147 c -0.063548,-0.128186 -0.097447,0.02013 0,0 z m 3.410073,2.023396 c 0.3048114,-0.219881 -0.1845649,-0.04216 -0.063833,0.04184 z m -0.1167659,-0.05642 c 0.2483935,-0.207932 -0.2619598,0.09214 0,0 z m 0.5963391,0.396953 c 0.1666636,-0.111505 -0.2025461,-0.03601 0,0 z M 3.3707385,61.707369 c 0.2232414,0.05002 0.8927272,0.550045 0.4978806,0.03471 -0.2023027,-0.05986 -0.080999,-0.554339 -0.2873144,-0.466938 0.1385139,0.231465 0.1138071,0.329679 -0.1769899,0.184079 -0.3651593,-0.178529 -0.2052185,0.0882 -0.1336553,0.161842 -0.097524,0.02224 0.1286727,0.08448 0.1000392,0.08626 z M 2.3529449,60.903623 c 0.039972,-0.16557 -0.3683985,-0.910021 -0.1927857,-0.373177 0.063263,0.112551 0.056701,0.325709 0.1927857,0.373177 z m 1.8681552,1.151731 c -0.1151852,-0.09611 -0.00561,-0.01377 0,0 z m 0.2831032,0.06602 c 0,-0.175369 -0.3129923,-0.07128 0,0 z m 2.455098,1.547427 c -0.046857,-0.119762 -0.1850918,-0.0027 0,0 z m 0.1178576,0.08602 c -0.017547,-0.06699 -0.068123,0.013 0,0 z m 0.973,0.613107 c 0.093515,-0.0691 -0.1168058,-0.009 0,0 z M 2.8611936,61.033392 c 0.2677127,-0.1036 -0.2868703,-0.07392 0,0 z m 3.8819523,2.445457 c -0.00314,-0.173182 -0.170792,0.04322 0,0 z m -3.9876595,-2.69207 c 0.1718857,-0.05792 -0.1591714,-0.03808 0,0 z m 0.4989742,0.241792 c -0.00295,-0.0569 -0.052688,0.02175 0,0 z m 6.0873188,3.732909 c 0.2211359,-0.04475 0.7251336,0.112593 0.8064196,-0.05849 -0.2685234,-0.0066 -0.9287728,-0.189667 -0.9600399,0.04337 l 0.058802,0.0093 0.094855,0.0058 z M 3.4130623,61.068587 c 0.00409,-0.175614 -0.1368935,-0.0066 0,0 z M 2.1011487,60.158319 c -0.059573,-0.33454 -0.2267251,-0.05063 0,0 z m 0.3127497,0.07865 c 0.00399,-0.107535 -0.2863424,-0.09668 0,0 z m 0.1787722,0.08793 c -0.051642,-0.04187 -0.040257,0.05265 0,0 z m 1.1252841,0.721687 c 0.053011,-0.04875 -0.1255134,-0.03601 0,0 z M 2.4737602,60.12681 c -0.030414,-0.252646 -0.3625667,-0.03787 0,0 z M 1.832019,59.710458 c -0.00904,-0.116522 -0.062531,0.04395 0,0 z m 0.095582,-0.07198 c -0.015597,-0.138311 -0.082093,0.01741 0,0 z m 0.5271229,0.314571 c 0.222998,-0.0874 -0.4060651,-0.181161 -0.045564,-0.0164 z m 7.0563516,4.358737 c 0.1427252,-0.130819 -0.1811611,-0.0405 0,0 z m 0.8525075,0.441747 c 0.05723,-0.168932 -0.144103,0.02228 0,0 z M 2.5085908,59.676839 c 0.023605,-0.163625 -0.1768682,0.03256 0,0 z M 1.7583882,59.17422 c -0.040257,-0.230937 -0.034713,-0.636435 0.3506588,-0.499502 -0.5143647,0.10222 0.3562072,0.639514 0.2462869,0.215265 0.2163579,0.01065 0.4232378,-0.127863 0.3095904,0.08209 0.4263962,-0.04686 0.7217317,-0.416554 1.1335058,-0.364632 0.320688,-0.04261 0.6713468,-0.07468 1.0169842,-0.203923 0.284156,-0.02041 0.5577005,-0.326318 0.4020546,-0.507723 -0.3874753,-0.03281 -0.793256,0.01563 -1.2214743,0.100931 -0.4745507,0.0985 -0.905686,0.285979 -1.3845725,0.366536 -0.4669368,0.06277 0.093762,0.172656 -0.04001,0.197281 -0.2434119,0.08449 0.2905555,0.14143 -0.031508,0.230654 -0.1988618,-0.03782 -0.4059833,-0.106156 -0.3209724,-0.315909 -0.4470517,0.05824 -0.8400743,0.243614 -0.486743,0.698605 l 0.026248,2.51e-4 z m 1.0776543,-0.548791 c 0.1046131,-0.386096 0.5614277,0.317854 0.1716014,0.05139 -0.046372,-0.035 -0.1232042,-0.06334 -0.1716014,-0.05139 z m 0.020333,-0.187277 c 0.1512711,-0.112512 0.080277,0.06334 0,0 z m 0.1920161,0.0033 c 0.013847,-0.177719 0.4399646,0.094 0.070224,0.06384 l -0.070224,-0.06387 z m 0.2627312,-0.105663 c 0.09615,-0.11235 0.027865,0.09955 0,0 z m 0.067314,-0.04499 c 0.1599379,-0.192016 0.9049147,-0.122677 0.3596091,-0.01888 -0.1462089,-0.110159 -0.2581957,0.06489 -0.3596091,0.01888 z m 0.9724323,-0.149936 c -0.024061,-0.524691 0.4833392,0.186184 0,0 z m 0.2760152,-0.0016 c 0.1008477,-0.264269 0.3916436,-0.106156 0.046857,-0.05322 0.00732,0.02835 -0.010339,0.136692 -0.046857,0.05322 z m -2.2270366,1.402032 c 0.3013278,-0.184603 -0.3199596,-0.160182 0,0 z m 0.2229579,0.06172 c 0.1057076,-0.112269 -0.2298833,-0.04556 0,0 z M 1.9660404,59.137111 c 0.1721292,-0.132439 -0.2039232,-0.0503 0,0 z m 8.9006916,5.568215 c 0.005,-0.153621 -0.131628,0.0691 0,0 z M 9.9622994,64.087979 c 0.025678,-0.176585 -0.116238,0.01538 0,0 z m 1.1531096,0.676976 c 0.240778,8.27e-4 0.729585,-0.07501 0.205744,-0.07473 -0.08234,0.01276 -0.479047,0.01009 -0.205744,0.07473 z M 2.8188317,59.494584 c 0.1949312,-0.01324 0.3048115,-0.214819 -0.037909,-0.203396 -0.5309707,-0.0548 0.4684756,0.18197 -0.068047,0.114171 -0.072013,0.04768 0.1016562,0.102467 0.105952,0.08922 z m 0.1716024,0.08691 c -0.020409,-0.125028 -0.060428,0.06642 0,0 z m 0.2036407,-0.54296 c 0.08449,-0.1049 -0.1170492,-0.02807 0,0 z M 2.5457324,57.955135 c 0.3480255,-0.118102 0.8236727,-0.251068 0.9879027,0.05833 -0.1671476,-0.201008 -0.067514,-0.399139 0.090319,-0.1049 0.2232415,0.29744 0.3349431,-0.135315 0.1898279,-0.235191 0.1655681,0.205503 0.3535747,0.302746 0.1106884,0.01305 0.2640674,-0.317569 -0.5283373,0.04156 -0.7084048,0.03782 -0.086591,0.03888 -0.8946302,0.206029 -0.6702931,0.230897 z m 0.2039241,-0.39031 c 0.1984148,-0.149612 0.6862097,0.08922 0.3731755,-0.148882 -0.0307,-0.02698 -0.6853603,0.180635 -0.3731755,0.148882 z m 0.7233085,0.0299 c 0.23199,0.0059 -0.1000773,-0.31198 0.1763822,-0.167918 -0.045278,-0.148274 -0.3220233,-0.176099 -0.457338,-0.235392 -0.076549,0.135596 0.1556459,0.405172 0.2809558,0.40331 z M 2.8765052,56.938152 c 0.080267,-0.108824 -0.1408641,0.05536 0,0 z m 0.2956587,0.07068 c 0.3741494,-0.0495 -0.095423,-0.160993 -0.075579,-0.0039 l 0.07554,0.0039 z M 2.6201327,56.577163 c -0.2635406,-0.344018 0.4955305,0.05776 0.2277369,-0.302464 -0.225347,-0.179256 -0.441704,0.202101 -0.2277369,0.302464 z m 3.3806309,1.820809 c 0.1208543,-0.214047 -0.4986518,-0.288692 -0.081285,-0.07581 0.038393,0.01276 0.02973,0.0906 0.081285,0.07581 z"
       id="path2"
       inkscape:connector-curvature="0"
       style="stroke-width:0.04050113"
       sodipodi:nodetypes="cccccccccccccccccccccccccccccccccccccccccccccccccccccccccccccccccccccccccccccccccccccccccccccccccccccccccccccccccccccccccccccccccccccccccccccccccccccccccccccccccccccccccccccccccccccccccccccccccccccccccccccccccccccccccccccccccccccccccccccccccccccccccccccccccccccccccccccccccccccccccccccccccccccccccccccccccccccccccccccccccccccccccccccccccccccccccccccccccccccccccccccccccccccccccccccccccccccccccccccccccccccccccccccccccccccccccccccccccccccccccccccccccccccc" />
  </g>
</svg>
