<?xml version="1.0" encoding="UTF-8" standalone="no"?>
<svg
   xmlns:dc="http://purl.org/dc/elements/1.1/"
   xmlns:cc="http://creativecommons.org/ns#"
   xmlns:rdf="http://www.w3.org/1999/02/22-rdf-syntax-ns#"
   xmlns:svg="http://www.w3.org/2000/svg"
   xmlns="http://www.w3.org/2000/svg"
   xmlns:sodipodi="http://sodipodi.sourceforge.net/DTD/sodipodi-0.dtd"
   xmlns:inkscape="http://www.inkscape.org/namespaces/inkscape"
   viewBox="0 0 100 100"
   version="1.1"
   id="svg6"
   sodipodi:docname="javascript-logo.svg"
   inkscape:version="0.92.3 (2405546, 2018-03-11)"
   width="100"
   height="100">
  <metadata
     id="metadata12">
    <rdf:RDF>
      <cc:Work
         rdf:about="">
        <dc:format>image/svg+xml</dc:format>
        <dc:type
           rdf:resource="http://purl.org/dc/dcmitype/StillImage" />
        <dc:title></dc:title>
      </cc:Work>
    </rdf:RDF>
  </metadata>
  <defs
     id="defs10" />
  <sodipodi:namedview
     pagecolor="#ffffff"
     bordercolor="#666666"
     borderopacity="1"
     objecttolerance="10"
     gridtolerance="10"
     guidetolerance="10"
     inkscape:pageopacity="0"
     inkscape:pageshadow="2"
     inkscape:window-width="1366"
     inkscape:window-height="703"
     id="namedview8"
     showgrid="false"
     inkscape:zoom="1.4984127"
     inkscape:cx="49.282619"
     inkscape:cy="67.962776"
     inkscape:window-x="0"
     inkscape:window-y="0"
     inkscape:window-maximized="1"
     inkscape:current-layer="layer1"
     inkscape:snap-bbox="true"
     inkscape:bbox-paths="true"
     inkscape:snap-bbox-edge-midpoints="true"
     inkscape:bbox-nodes="true"
     inkscape:snap-bbox-midpoints="true"
     inkscape:object-paths="true"
     inkscape:snap-intersection-paths="true"
     inkscape:snap-smooth-nodes="true"
     inkscape:snap-midpoints="true"
     inkscape:snap-object-midpoints="true"
     inkscape:snap-center="true"
     inkscape:snap-text-baseline="true"
     inkscape:snap-page="true" />
  <g
     inkscape:groupmode="layer"
     id="layer1"
     inkscape:label="logo">
    <g
       style=""
       id="g818"
       transform="matrix(0.15873016,0,0,0.15873016,0,84.126984)">
      <rect
         style="fill:#f7df1e"
         y="-530"
         x="0"
         id="rect2"
         height="630"
         width="630" />
      <path
         inkscape:connector-curvature="0"
         id="path4"
         d="m 364.725,-156.095 c 12.69,20.72 29.2,35.95 58.4,35.95 24.53,0 40.2,-12.26 40.2,-29.2 0,-20.3 -16.1,-27.49 -43.1,-39.3 l -14.8,-6.35 c -42.72,-18.2 -71.1,-41 -71.1,-89.2 0,-44.4 33.83,-78.2 86.7,-78.2 37.64,0 64.7,13.1 84.2,47.4 l -46.1,29.6 c -10.15,-18.2 -21.1,-25.37 -38.1,-25.37 -17.34,0 -28.33,11 -28.33,25.37 0,17.76 11,24.95 36.4,35.95 l 14.8,6.34 c 50.3,21.57 78.7,43.56 78.7,93 0,53.3 -41.87,82.5 -98.1,82.5 -54.98,0 -90.5,-26.2 -107.88,-60.54 z m -209.13,5.13 c 9.3,16.5 17.76,30.45 38.1,30.45 19.45,0 31.72,-7.61 31.72,-37.2 v -201.3 h 59.2 v 202.1 c 0,61.3 -35.94,89.2 -88.4,89.2 -47.4,0 -74.85,-24.53 -88.81,-54.075 z" />
    </g>
  </g>
</svg>
