<?xml version="1.0" encoding="UTF-8" standalone="no"?>
<!-- Created with Inkscape (http://www.inkscape.org/) -->

<svg
   xmlns:dc="http://purl.org/dc/elements/1.1/"
   xmlns:cc="http://creativecommons.org/ns#"
   xmlns:rdf="http://www.w3.org/1999/02/22-rdf-syntax-ns#"
   xmlns:svg="http://www.w3.org/2000/svg"
   xmlns="http://www.w3.org/2000/svg"
   xmlns:sodipodi="http://sodipodi.sourceforge.net/DTD/sodipodi-0.dtd"
   xmlns:inkscape="http://www.inkscape.org/namespaces/inkscape"
   width="100"
   height="100"
   viewBox="0 0 26.458332 26.458332"
   version="1.1"
   id="svg836"
   inkscape:version="0.92.3 (2405546, 2018-03-11)"
   sodipodi:docname="jquery-logo.svg">
  <defs
     id="defs830" />
  <sodipodi:namedview
     id="base"
     pagecolor="#ffffff"
     bordercolor="#666666"
     borderopacity="1.0"
     inkscape:pageopacity="0.0"
     inkscape:pageshadow="2"
     inkscape:zoom="3.959798"
     inkscape:cx="23.729637"
     inkscape:cy="53.40819"
     inkscape:document-units="mm"
     inkscape:current-layer="layer1"
     showgrid="false"
     units="px"
     inkscape:snap-bbox="true"
     inkscape:bbox-paths="true"
     inkscape:bbox-nodes="true"
     inkscape:snap-bbox-edge-midpoints="true"
     inkscape:snap-bbox-midpoints="true"
     inkscape:object-paths="true"
     inkscape:snap-intersection-paths="true"
     inkscape:snap-smooth-nodes="true"
     inkscape:snap-midpoints="true"
     inkscape:snap-object-midpoints="true"
     inkscape:snap-center="true"
     inkscape:snap-text-baseline="true"
     inkscape:snap-page="true"
     inkscape:window-width="1366"
     inkscape:window-height="709"
     inkscape:window-x="0"
     inkscape:window-y="33"
     inkscape:window-maximized="1" />
  <metadata
     id="metadata833">
    <rdf:RDF>
      <cc:Work
         rdf:about="">
        <dc:format>image/svg+xml</dc:format>
        <dc:type
           rdf:resource="http://purl.org/dc/dcmitype/StillImage" />
        <dc:title />
      </cc:Work>
    </rdf:RDF>
  </metadata>
  <g
     inkscape:label="logo"
     inkscape:groupmode="layer"
     id="layer1"
     transform="translate(0,-270.54169)">
    <g
       transform="translate(0,-7.0833333e-6)"
       style=""
       id="g827">
      <rect
         y="270.54169"
         x="0"
         height="26.458332"
         width="26.458332"
         id="rect821"
         style="fill:#1e2e3b;fill-opacity:1;stroke:none;stroke-width:0.26458332;stroke-linecap:round;stroke-linejoin:round;stroke-miterlimit:4;stroke-dasharray:none;stroke-opacity:1;paint-order:stroke fill markers" />
      <path
         inkscape:connector-curvature="0"
         id="jQuery"
         d="m 8.824688,286.39154 c -1.2868471,0 -1.846,0.9266 -2.0592983,1.93384 -0.213136,1.01456 0.066194,1.90406 1.3456603,1.89674 l 1.0097509,-0.003 0.9429741,-0.003 c 0.03633,-2.9e-4 0.07371,-0.029 0.08296,-0.0641 l 0.164582,-0.6273 c 0.0092,-0.0352 -0.01359,-0.0639 -0.04991,-0.0641 l -0.157163,-6.7e-4 -0.1578364,-10e-4 c -0.03092,-1.6e-4 -0.048208,-0.02 -0.044518,-0.0465 l 0.00405,-0.0148 c 0,0 0.3560794,-0.86532 0.4370874,-1.36522 0.110307,-0.6692 -0.22427,-1.63975 -1.5183374,-1.63975 z m 13.282572,0.37031 -0.207751,0.001 c -0.03633,2.7e-4 -0.09585,6.7e-4 -0.132205,6.7e-4 h -0.549732 c -0.03632,0 -0.08267,0.0247 -0.103199,0.0546 l -1.216155,1.78072 c -0.02053,0.0302 -0.04381,0.026 -0.05194,-0.009 l -0.08904,-0.39257 c -0.008,-0.0356 -0.04462,-0.0641 -0.08094,-0.0641 h -0.781765 c -0.03642,0 -0.05776,0.0285 -0.04789,0.0634 l 0.350074,1.22694 c 0.0099,0.035 0.01103,0.0923 0.002,0.12748 l -0.153115,0.59358 c -0.0091,0.0354 0.01355,0.0641 0.04991,0.0641 h 0.772322 c 0.03626,0 0.07396,-0.0287 0.08296,-0.0641 l 0.152441,-0.59358 c 0.009,-0.0352 0.03407,-0.0877 0.05599,-0.11669 l 1.974309,-2.61982 c 0.02192,-0.0289 0.01002,-0.0528 -0.02631,-0.0526 z m -6.708063,0.39459 c -1.272051,0 -1.573171,0.77214 -1.742275,1.55139 -0.169104,0.79427 -0.154761,1.53655 1.161517,1.53655 h 0.04722 0.01214 0.08499 0.01551 c 0.01311,0 0.02652,0 0.0398,0 h 0.0094 c 0.05209,-1.1e-4 0.104804,-4.8e-4 0.157837,-6.8e-4 h 0.0027 c 0.347661,-10e-4 0.695814,-0.004 0.837073,-0.005 0.03617,-5.2e-4 0.0715,-0.0295 0.07892,-0.0648 l 0.05329,-0.26036 0.01079,-0.0506 0.0634,-0.31095 c 0.0074,-0.0356 -0.01686,-0.0648 -0.05329,-0.0648 h -1.1831 c -0.470629,0 -0.610621,-0.12473 -0.559174,-0.4924 h 1.892018 0.0013 c 0.03005,-5.2e-4 0.05779,-0.0217 0.0688,-0.0492 l 0.0047,-0.0162 h -6.75e-4 c 0.280901,-1.0594 0.200246,-1.77263 -1.003005,-1.77263 z m -6.6810826,0.025 c 0.710109,-0.0204 0.8495317,0.50767 0.6691202,1.1143 l -0.018212,0.0634 v 6.8e-4 l -0.1423229,0.50589 -0.1429971,0.50588 c -0.00994,0.0349 -0.04789,0.0641 -0.084314,0.0641 H 8.2439298 c -0.573458,0 -0.7136862,-0.44866 -0.574013,-1.11025 0.1395762,-0.67661 0.4135915,-1.09733 0.9780478,-1.13993 0.024103,-0.002 0.047243,-0.003 0.07015,-0.004 z m -2.8801841,0.0108 c -0.036327,0 -0.072913,0.0294 -0.080942,0.0648 l -0.068126,0.30084 -0.068126,0.30083 c -0.00809,0.0354 0.014936,0.0648 0.051263,0.0648 h 0.7244299 c 0.036425,0 0.072466,-0.0293 0.080269,-0.0648 l 0.066102,-0.30083 0.066103,-0.30084 c 0.00777,-0.0356 -0.015612,-0.0648 -0.051938,-0.0648 z m 5.2443637,0.008 c -0.03636,0 -0.07224,0.0293 -0.07959,0.0648 l -0.144347,0.68531 -0.145021,0.68531 v 6.7e-4 l -0.01349,0.0641 c -0.166384,0.75969 -0.121974,1.48424 0.782439,1.50687 0.0148,4.2e-4 0.02631,0 0.02631,0 h 1.419183 c 0.03633,0 0.07198,-0.0291 0.07959,-0.0648 l 0.30623,-1.43875 0.30623,-1.43874 c 0.0075,-0.0356 -0.01625,-0.0648 -0.05261,-0.0648 H 12.91293 c -0.03633,0 -0.0725,0.0293 -0.08027,0.0648 l -0.232033,1.0745 -0.232708,1.07518 c -0.0077,0.0355 -0.04333,0.0648 -0.07959,0.0648 h -0.463392 c -0.458391,0 -0.405552,-0.31711 -0.311626,-0.75141 l 0.0027,-0.0128 0.01012,-0.0553 0.002,-0.0101 0.02091,-0.11129 0.02226,-0.11939 c 0.0068,-0.036 0.01755,-0.089 0.02428,-0.12209 l 0.1059,-0.51601 0.105224,-0.516 c 0.0073,-0.0356 -0.01629,-0.0648 -0.05261,-0.0648 z m 6.198128,0.007 c -0.03633,0 -0.07276,0.0292 -0.08027,0.0648 l -0.02631,0.12613 -0.0317,0.14975 -0.0088,0.0418 -0.272505,1.27618 -0.259013,1.21211 c -0.0077,0.0356 -0.0098,0.0793 -0.0054,0.0971 0.0044,0.0177 0.07359,0.0317 0.109947,0.0317 h 0.546358 c 0.03642,0 0.08204,-0.006 0.101851,-0.0142 0.01985,-0.008 0.04937,-0.0797 0.05666,-0.11534 l 0.09713,-0.47958 0.09713,-0.48025 v -6.8e-4 l 0.01282,-0.0641 0.118041,-0.55175 0.103875,-0.487 c 0.0077,-0.0354 0.04336,-0.064 0.07959,-0.0641 l 1.717993,-6.8e-4 c 0.03623,-1.6e-4 0.05891,-0.0293 0.05059,-0.0648 l -0.02968,-0.12411 -0.02968,-0.12681 -0.01551,-0.0648 c -0.05886,-0.22868 -0.231338,-0.3602 -0.60639,-0.3602 l -0.584131,-6.7e-4 -0.53759,-6.8e-4 h -0.605041 z m -2.049854,0.66912 c 0.407915,0 0.487028,0.19888 0.459345,0.42293 -0.0049,0.039 -0.04074,0.0681 -0.07689,0.0681 h -0.990864 c -0.03425,0 -0.0523,-0.0233 -0.04722,-0.0519 l 6.75e-4,-0.002 6.75e-4,-0.003 c 0,0 0.0014,-0.007 0.004,-0.0169 0.09467,-0.25167 0.287905,-0.41686 0.650234,-0.41686 z m -9.6071338,0.2516 c -0.036327,0 -0.072335,0.0293 -0.080268,0.0648 l -0.1018524,0.45058 -0.1018515,0.45058 c -0.00806,0.0355 -0.020819,0.0939 -0.02833,0.1295 l -0.097805,0.46002 -0.097805,0.46002 c -0.00761,0.0355 -0.023355,0.0931 -0.035075,0.12749 0,0 -0.1353456,0.40249 -0.3628897,0.39796 -0.00962,-2.9e-4 -0.018908,1.9e-4 -0.02833,0 -0.110081,-0.002 -0.1969585,-0.004 -0.1969585,-0.004 -0.036327,-5.2e-4 -0.072557,0.0281 -0.080942,0.0634 l -0.075546,0.31567 -0.074871,0.31568 c -0.00839,0.0353 0.014456,0.0648 0.050588,0.0654 0.1288599,0.001 0.4178385,0.005 0.5928998,0.005 0.5682769,0 0.8681833,-0.31539 1.0603399,-1.22155 l 0.2246127,-1.04011 0.2111241,-0.97535 c 0.00777,-0.0355 -0.016253,-0.0648 -0.052612,-0.0648 z"
         style="fill:#ffffff;fill-opacity:1;fill-rule:nonzero;stroke:none;stroke-width:0.02698065" />
      <g
         transform="matrix(1.0987688e-4,0,0,-1.0987688e-4,54.603623,291.57869)"
         id="g832">
        <path
           style="fill:#21ace2;fill-opacity:1;fill-rule:nonzero;stroke:none;stroke-width:685.85290527"
           d="m -366591.05,147472.29 -2880.58,-3960.8 c -3850.27,-5666.51 -4214.45,-12704.73 -1543.17,-18963.83 2815.57,-6641.8 8575.06,-11865.26 15311.67,-14334.33 277.77,-104.52 560.42,-198.48 840.17,-291.48 l 377.22,-120.03 c 399.66,-124.27 789.39,-264.74 1200.24,-342.92 18620.74,-3596.62 23673.31,9548.99 25016.48,11488.03 -4425.39,-6371.02 -11863.71,-7891.01 -20987.09,-5675.43 -717.19,172.83 -1504.22,424.27 -2194.73,668.71 -894.71,320.15 -1770.82,685.85 -2623.39,1097.36 -1620.95,776.93 -3162.91,1730.54 -4595.22,2812 -8162.33,6193.25 -13246.15,17999.93 -7921.6,27622.72 z m -21124.27,-4612.36 -5332.5,-7527.23 c -6532.42,-9398.93 -6173.58,-21985.15 -1080.22,-31926.46 854.87,-1667.44 1810.32,-3277.41 2880.58,-4818.113 979.23,-1401.609 2080.91,-3075.776 3377.83,-4200.849 472.91,-519.328 957.86,-1026.448 1457.43,-1526.023 l 394.37,-377.219 c 486.08,-473.239 978.57,-936.189 1491.73,-1388.852 l 51.41,-51.439 17.12,-17.146 c 566.16,-495.461 1153.88,-969.522 1748.93,-1440.292 l 394.36,-308.633 c 597.35,-457.601 1210.97,-909.441 1834.66,-1337.414 l 51.41,-51.438 c 273.24,-190.942 562.73,-366.795 840.17,-548.683 l 394.36,-257.195 c 446.25,-286.412 897.13,-557.187 1354.56,-823.023 l 188.61,-120.024 c 395.47,-226.332 796.14,-451.429 1200.25,-668.707 l 428.65,-222.902 c 279.75,-144.029 558.21,-288.744 840.17,-428.658 l 120.03,-68.586 c 574.8,-283.943 1158.4,-546.624 1748.92,-805.877 l 394.37,-154.317 c 475.13,-199.994 941.26,-401.086 1423.14,-582.975 204.2,-77.364 410.53,-149.653 617.27,-222.902 434.97,-162.135 878.55,-313.983 1320.27,-462.951 199.99,-64.195 402.76,-126.059 600.12,-188.609 628.54,-195.057 1250.67,-440.043 1903.24,-548.682 33724.05,-5586.766 41511.33,20369.749 41511.33,20369.749 -7018.74,-10110.021 -20613.75,-14928.412 -35115.67,-11162.256 -646.15,168.719 -1289.95,348.687 -1920.39,548.682 l -565.83,188.609 c -448.46,145.676 -893.47,303.285 -1337.41,462.951 -202.22,75.718 -400.13,145.538 -600.12,222.902 -483.86,184.358 -967.38,381.335 -1440.29,582.975 l -394.37,154.317 c -590.6,261.722 -1171.57,536.612 -1748.92,823.024 -297.36,144.029 -598.45,296.837 -891.61,445.804 l -497.24,257.195 c -377.77,204.933 -763.19,418.782 -1131.66,634.414 l -257.2,154.317 c -457.51,269.129 -910.29,538.257 -1354.56,823.023 l -411.51,274.342 c -293.24,190.941 -587.96,387.095 -874.46,582.974 -623.69,428.796 -1222.46,883.928 -1817.51,1337.414 l -411.51,308.633 c -6350.45,5009.74 -11389.91,11865.67 -13785.64,19632.54 -2507.02,8055.75 -1962.31,17094.61 2383.33,24433.51 z m -26319.6,-9516.21 -7047.14,-8950.38 c -9032.69,-12980.72 -7910.54,-29875.339 -1011.64,-43671.681 164.28,-328.387 343.37,-653.07 514.39,-977.341 108.73,-209.048 197.69,-415.627 308.64,-617.267 l 205.75,-360.073 c 117.61,-219.747 240.16,-421.251 360.08,-634.414 217.6,-379.414 444.35,-756.359 668.7,-1131.657 124.44,-206.579 233.66,-410.689 360.08,-617.268 251.02,-401.636 511.83,-802.722 771.58,-1200.243 l 325.78,-497.243 c 361.97,-537.427 737.07,-1066.227 1114.51,-1594.608 l 17.15,-51.439 188.61,-257.195 c 328.63,-453.486 669.83,-896.272 1011.63,-1337.413 l 377.22,-480.097 c 306.33,-384.352 627.67,-766.921 943.05,-1148.804 l 342.93,-428.658 c 426.32,-499.575 861.4,-988.177 1303.12,-1474.584 l 34.29,-34.292 51.41,-51.439 c 430.77,-470.77 874.02,-928.782 1320.27,-1388.852 l 411.51,-428.658 c 348.55,-348.139 707.77,-687.225 1063.07,-1028.78 l 428.69,-411.566 c 475.54,-446.079 949.35,-892.295 1440.29,-1320.267 l 34.29,-17.146 240.05,-222.903 c 430.85,-372.829 876.25,-733.588 1320.27,-1097.364 l 531.53,-428.658 c 359.75,-288.882 726.68,-577.489 1097.37,-857.317 l 582.97,-445.831 c 406.41,-299.581 821.46,-605.197 1234.54,-891.609 l 445.8,-308.634 120.03,-85.732 c 393.15,-268.305 800.66,-528.655 1200.24,-788.73 l 514.39,-342.927 c 614.96,-388.467 1238.18,-777.62 1868.95,-1148.803 l 514.39,-291.488 c 464.18,-266.66 918.24,-533.594 1388.85,-788.731 255.3,-138.268 531.21,-261.035 788.73,-394.365 333.08,-175.304 654.99,-343.201 994.49,-514.39 l 240.05,-120.024 394.36,-188.61 c 525.99,-251.022 1059.31,-499.438 1594.61,-737.292 l 342.92,-154.317 c 610.52,-269.128 1227.79,-525.5 1851.81,-771.584 l 445.8,-171.463 c 579.33,-222.217 1162.85,-446.628 1748.93,-651.561 l 222.9,-85.731 c 646.24,-223.863 1299.47,-430.304 1954.68,-634.414 l 462.95,-137.171 c 666.16,-202.463 1319.72,-439.083 2006.12,-565.828 43680.33,-7966.868 56377.11,26251.02 56377.11,26251.02 -10653.22,-13884.407 -29571.76,-17554.268 -47495.31,-13477.01 -679.33,153.082 -1344.17,372.418 -2006.12,565.829 l -497.25,154.317 c -646.24,197.525 -1282.87,396.697 -1920.39,617.267 l -257.19,102.878 c -570.6,199.172 -1138.08,416.313 -1697.49,634.414 l -480.09,188.61 c -617.27,244.438 -1230.56,490.247 -1834.66,754.438 l -377.22,154.317 c -519.57,235.385 -1028.12,474.061 -1543.17,720.145 l -445.8,222.903 c -401.88,193.41 -787.64,393.542 -1183.1,600.121 -268.39,137.445 -541.6,284.629 -805.88,428.658 -484.18,262.544 -965.16,530.164 -1440.29,805.877 l -480.09,257.195 c -632.99,370.361 -1253.99,759.513 -1868.95,1148.804 l -497.25,342.926 c -446.24,288.881 -897.59,574.059 -1337.41,874.462 l -411.51,308.634 c -428.55,299.581 -855.67,600.122 -1268.83,908.755 l -548.68,411.512 c -379.74,290.527 -756.44,590.382 -1131.66,891.609 l -514.39,411.512 c -477.43,390.936 -939.84,778.991 -1406,1183.096 l -154.31,120.024 c -501.88,441.964 -1003.35,901.897 -1491.73,1354.56 l -411.52,411.511 c -359.74,344.024 -712.38,690.38 -1063.07,1045.926 l -428.66,411.512 c -444.26,455.955 -876.87,920.552 -1303.12,1388.852 l -68.58,68.585 c -450.69,494.637 -887.19,998.602 -1320.27,1508.877 l -342.93,411.511 c -324.43,388.468 -647.03,787.222 -960.19,1183.097 l -342.93,428.658 c -377.76,486.407 -759.29,981.592 -1114.51,1474.584 -9949.94,13571.657 -13526.01,32295.166 -5572.55,47666.776 z"
           id="signet"
           inkscape:connector-curvature="0" />
      </g>
    </g>
  </g>
</svg>
