<?xml version="1.0" encoding="UTF-8" standalone="no"?>
<!-- Created with Inkscape (http://www.inkscape.org/) -->

<svg
   xmlns:dc="http://purl.org/dc/elements/1.1/"
   xmlns:cc="http://creativecommons.org/ns#"
   xmlns:rdf="http://www.w3.org/1999/02/22-rdf-syntax-ns#"
   xmlns:svg="http://www.w3.org/2000/svg"
   xmlns="http://www.w3.org/2000/svg"
   xmlns:sodipodi="http://sodipodi.sourceforge.net/DTD/sodipodi-0.dtd"
   xmlns:inkscape="http://www.inkscape.org/namespaces/inkscape"
   width="100"
   height="100"
   viewBox="0 0 26.458332 26.458332"
   version="1.1"
   id="svg836"
   inkscape:version="0.92.3 (2405546, 2018-03-11)"
   sodipodi:docname="jquery-logo.svg">
  <defs
     id="defs830" />
  <sodipodi:namedview
     id="base"
     pagecolor="#ffffff"
     bordercolor="#666666"
     borderopacity="1.0"
     inkscape:pageopacity="0.0"
     inkscape:pageshadow="2"
     inkscape:zoom="3.959798"
     inkscape:cx="58.832438"
     inkscape:cy="63.004639"
     inkscape:document-units="mm"
     inkscape:current-layer="layer1"
     showgrid="false"
     units="px"
     inkscape:snap-bbox="true"
     inkscape:bbox-paths="true"
     inkscape:bbox-nodes="true"
     inkscape:snap-bbox-edge-midpoints="true"
     inkscape:snap-bbox-midpoints="true"
     inkscape:object-paths="true"
     inkscape:snap-intersection-paths="true"
     inkscape:snap-smooth-nodes="true"
     inkscape:snap-midpoints="true"
     inkscape:snap-object-midpoints="true"
     inkscape:snap-center="true"
     inkscape:snap-text-baseline="true"
     inkscape:snap-page="true"
     inkscape:window-width="1366"
     inkscape:window-height="703"
     inkscape:window-x="0"
     inkscape:window-y="0"
     inkscape:window-maximized="1" />
  <metadata
     id="metadata833">
    <rdf:RDF>
      <cc:Work
         rdf:about="">
        <dc:format>image/svg+xml</dc:format>
        <dc:type
           rdf:resource="http://purl.org/dc/dcmitype/StillImage" />
        <dc:title></dc:title>
      </cc:Work>
    </rdf:RDF>
  </metadata>
  <g
     inkscape:label="logo"
     inkscape:groupmode="layer"
     id="layer1"
     transform="translate(0,-270.54169)">
    <g
       transform="matrix(5.4099963e-5,0,0,-5.4099963e-5,0.00983537,304.27116)"
       style="display:inline"
       id="g838">
      <circle
         transform="scale(1,-1)"
         r="244531.2"
         cy="-378934.47"
         cx="244350.8"
         id="path825"
         style="fill:#1e2e3b;fill-opacity:1;stroke:none;stroke-width:4776;stroke-linecap:round;stroke-linejoin:round;stroke-miterlimit:4;stroke-dasharray:none;stroke-opacity:1;paint-order:stroke fill markers" />
      <path
         inkscape:connector-curvature="0"
         id="jQuery"
         d="m 162936.39,330492.27 c -23786.47,0 -34122.02,-17127.49 -38064.69,-35745.64 -3939.67,-18753.41 1223.55,-35195.17 24873.59,-35059.91 l 18664.54,62.34 17430.21,62.34 c 671.47,5.38 1362.39,536.92 1533.56,1184.46 l 3042.18,11595.21 c 169.96,650.53 -251.15,1181.46 -922.63,1184.45 l -2905.04,12.47 -2917.5,24.93 c -571.53,2.99 -891.1,369.55 -822.89,860.28 l 74.82,274.3 c 0,0 6581.87,15994.9 8079.24,25235.16 2038.96,12369.61 -4145.47,30309.61 -28065.39,30309.61 z m 245519.06,-6844.91 -3840.13,-24.94 c -671.47,-4.99 -1771.65,-12.47 -2443.72,-12.47 h -10161.41 c -671.43,0 -1528.15,-456.31 -1907.57,-1009.9 l -22479.76,-32915.41 c -379.41,-557.19 -809.79,-479.58 -960.02,174.55 l -1645.76,7256.36 c -148.42,657.11 -824.68,1184.45 -1496.15,1184.45 h -14450.38 c -673.26,0 -1067.74,-526.24 -885.22,-1172 l 6470.88,-22679.22 c 183.71,-646.33 203.78,-1705.92 37.41,-2356.44 l -2830.23,-10971.8 c -168.18,-654.11 250.55,-1184.46 922.63,-1184.46 h 14275.83 c 670.24,0 1367.13,530.35 1533.54,1184.46 l 2817.76,10971.8 c 166.42,650.52 629.7,1620.73 1034.86,2156.95 l 36493.73,48425.56 c 405.16,534.44 185.17,975.5 -486.25,972.51 z M 284461.6,316353.61 c -23512.98,0 -29078.97,-14272.53 -32204.74,-28676.31 -3125.77,-14681.48 -2860.66,-28402.02 21469.83,-28402.02 h 872.75 224.42 1570.97 286.76 c 242.37,0 490.23,0 735.61,0 h 174.55 c 962.92,1.99 1937.23,8.86 2917.51,12.47 h 49.87 c 6426.28,23.94 12861.64,76.99 15472.71,99.73 668.49,9.59 1321.71,544.61 1458.77,1196.93 l 984.98,4812.64 199.48,935.09 1171.98,5747.73 c 135.86,657.11 -311.7,1196.93 -984.98,1196.93 h -21868.78 c -8699.25,0 -11286.9,2305.47 -10335.94,9101.61 h 34972.62 24.95 c 555.36,9.57 1068.24,401.47 1271.71,910.16 l 87.28,299.24 h -12.48 c 5192.27,19582.27 3701.41,32765.8 -18539.83,32765.8 z m -123495.15,-461.33 c 13125.87,377.05 15703,-9383.93 12368.22,-20597.07 l -336.64,-1171.98 v -12.48 l -2630.74,-9350.97 -2643.2,-9350.96 c -183.73,-645.74 -885.22,-1184.45 -1558.49,-1184.45 h -13964.12 c -10599.97,0 -13191.99,8293.28 -10610.23,20522.26 2579.97,12506.65 7644.95,20283.28 18078.53,21070.85 445.53,33.56 873.26,62.64 1296.67,74.8 z m -53238.19,-199.48 c -671.47,0 -1347.74,-543.4 -1496.16,-1196.92 l -1259.26,-5560.72 -1259.27,-5560.7 c -149.61,-653.53 276.09,-1196.93 947.56,-1196.93 h 13390.58 c 673.29,0 1339.48,541.61 1483.71,1196.93 l 1221.86,5560.7 1221.86,5560.72 c 143.63,657.11 -288.57,1196.92 -960.04,1196.92 z m 96938.4,-149.61 c -672.09,0 -1335.38,-541.61 -1471.23,-1196.93 l -2668.14,-12667.46 -2680.62,-12667.43 v -12.48 l -249.35,-1184.46 c -3075.49,-14042.3 -2254.6,-27435.1 14462.84,-27853.43 273.48,-7.77 486.23,0 486.23,0 h 26232.6 c 671.47,0 1330.58,538.04 1471.22,1196.94 l 5660.45,26594.17 5660.45,26594.15 c 138.84,657.11 -300.42,1196.93 -972.49,1196.93 h -12093.94 c -671.46,0 -1340.04,-541.61 -1483.67,-1196.93 l -4288.98,-19861.48 -4301.44,-19873.92 c -141.85,-655.31 -800.95,-1196.92 -1471.23,-1196.92 h -8565.49 c -8473.03,0 -7496.33,5861.55 -5760.19,13889.3 l 49.87,236.91 187.01,1022.36 37.41,187.03 386.51,2057.22 411.44,2206.83 c 126.28,664.87 324.37,1644.47 448.84,2256.69 l 1957.48,9537.99 1945,9537.99 c 134.06,657.11 -301.03,1196.93 -972.51,1196.93 z m 114568.06,-137.15 c -671.46,0 -1344.83,-539.81 -1483.68,-1196.93 l -486.25,-2331.51 -585.99,-2767.89 -162.08,-773.01 -5037.06,-23589.38 -4787.69,-22404.94 c -141.83,-657.1 -181.74,-1466.23 -99.75,-1795.38 81.38,-327.96 1360.2,-586 2032.29,-586 h 10099.04 c 673.27,0 1516.4,113.42 1882.66,261.84 366.84,148.43 912.64,1473.12 1047.31,2132.01 l 1795.37,8864.73 1795.39,8877.18 v 12.48 l 236.89,1184.45 2181.91,10198.8 1920.06,9001.86 c 141.83,654.13 801.54,1183.26 1471.22,1184.45 l 31755.9,12.48 c 669.67,2.98 1088.89,541.01 935.09,1196.92 l -548.59,2294.11 -548.59,2343.98 -286.77,1196.91 c -1087.99,4226.99 -4276.11,6657.93 -11208.69,6657.93 l -10797.25,12.47 -9936.97,12.49 h -11183.77 z m -37890.11,-12368.21 c 7540.02,0 9002.36,-3676.07 8490.67,-7817.42 -89.99,-721.35 -753.13,-1259.27 -1421.34,-1259.27 h -18315.43 c -633.18,0 -966.73,430.41 -872.76,960.04 l 12.46,37.4 12.48,62.34 c 0,0 26.33,129.17 74.8,311.69 1749.9,4651.85 5321.72,7705.22 12019.12,7705.22 z m -177581.16,-4650.57 c -671.48,0 -1337.06,-541 -1483.69,-1196.92 l -1882.67,-8328.59 -1882.655,-8328.6 c -149.016,-655.92 -384.816,-1734.94 -523.658,-2393.86 L 96182.928,269636.15 94375.071,261133 c -140.638,-655.92 -431.694,-1720.28 -648.334,-2356.44 0,0 -2501.769,-7439.88 -6707.762,-7356.11 -177.745,5.4 -349.504,-3.48 -523.657,0 -2034.77,38.32 -3640.64,74.81 -3640.64,74.81 -671.48,9.59 -1341.156,-519.66 -1496.155,-1171.98 l -1396.414,-5835.01 -1383.942,-5834.99 c -154.999,-651.74 267.213,-1196.84 935.094,-1209.4 2381.884,-27.54 7723.452,-87.28 10959.337,-87.28 10504.202,0 16047.762,5829.71 19599.642,22579.48 l 4151.81,19225.59 3902.48,18028.67 c 143.64,655.92 -300.42,1196.92 -972.49,1196.92 z"
         style="fill:#ffffff;fill-opacity:1;fill-rule:nonzero;stroke:none;stroke-width:498.71841431" />
      <g
         transform="matrix(2.0309973,0,0,2.0309973,1009128,234611.49)"
         id="g832">
        <path
           style="fill:#21ace2;fill-opacity:1;fill-rule:nonzero;stroke:none;stroke-width:685.85290527"
           d="m -366591.05,147472.29 -2880.58,-3960.8 c -3850.27,-5666.51 -4214.45,-12704.73 -1543.17,-18963.83 2815.57,-6641.8 8575.06,-11865.26 15311.67,-14334.33 277.77,-104.52 560.42,-198.48 840.17,-291.48 l 377.22,-120.03 c 399.66,-124.27 789.39,-264.74 1200.24,-342.92 18620.74,-3596.62 23673.31,9548.99 25016.48,11488.03 -4425.39,-6371.02 -11863.71,-7891.01 -20987.09,-5675.43 -717.19,172.83 -1504.22,424.27 -2194.73,668.71 -894.71,320.15 -1770.82,685.85 -2623.39,1097.36 -1620.95,776.93 -3162.91,1730.54 -4595.22,2812 -8162.33,6193.25 -13246.15,17999.93 -7921.6,27622.72 z m -21124.27,-4612.36 -5332.5,-7527.23 c -6532.42,-9398.93 -6173.58,-21985.15 -1080.22,-31926.46 854.87,-1667.44 1810.32,-3277.41 2880.58,-4818.113 979.23,-1401.609 2080.91,-3075.776 3377.83,-4200.849 472.91,-519.328 957.86,-1026.448 1457.43,-1526.023 l 394.37,-377.219 c 486.08,-473.239 978.57,-936.189 1491.73,-1388.852 l 51.41,-51.439 17.12,-17.146 c 566.16,-495.461 1153.88,-969.522 1748.93,-1440.292 l 394.36,-308.633 c 597.35,-457.601 1210.97,-909.441 1834.66,-1337.414 l 51.41,-51.438 c 273.24,-190.942 562.73,-366.795 840.17,-548.683 l 394.36,-257.195 c 446.25,-286.412 897.13,-557.187 1354.56,-823.023 l 188.61,-120.024 c 395.47,-226.332 796.14,-451.429 1200.25,-668.707 l 428.65,-222.902 c 279.75,-144.029 558.21,-288.744 840.17,-428.658 l 120.03,-68.586 c 574.8,-283.943 1158.4,-546.624 1748.92,-805.877 l 394.37,-154.317 c 475.13,-199.994 941.26,-401.086 1423.14,-582.975 204.2,-77.364 410.53,-149.653 617.27,-222.902 434.97,-162.135 878.55,-313.983 1320.27,-462.951 199.99,-64.195 402.76,-126.059 600.12,-188.609 628.54,-195.057 1250.67,-440.043 1903.24,-548.682 33724.05,-5586.766 41511.33,20369.749 41511.33,20369.749 -7018.74,-10110.021 -20613.75,-14928.412 -35115.67,-11162.256 -646.15,168.719 -1289.95,348.687 -1920.39,548.682 l -565.83,188.609 c -448.46,145.676 -893.47,303.285 -1337.41,462.951 -202.22,75.718 -400.13,145.538 -600.12,222.902 -483.86,184.358 -967.38,381.335 -1440.29,582.975 l -394.37,154.317 c -590.6,261.722 -1171.57,536.612 -1748.92,823.024 -297.36,144.029 -598.45,296.837 -891.61,445.804 l -497.24,257.195 c -377.77,204.933 -763.19,418.782 -1131.66,634.414 l -257.2,154.317 c -457.51,269.129 -910.29,538.257 -1354.56,823.023 l -411.51,274.342 c -293.24,190.941 -587.96,387.095 -874.46,582.974 -623.69,428.796 -1222.46,883.928 -1817.51,1337.414 l -411.51,308.633 c -6350.45,5009.74 -11389.91,11865.67 -13785.64,19632.54 -2507.02,8055.75 -1962.31,17094.61 2383.33,24433.51 z m -26319.6,-9516.21 -7047.14,-8950.38 c -9032.69,-12980.72 -7910.54,-29875.339 -1011.64,-43671.681 164.28,-328.387 343.37,-653.07 514.39,-977.341 108.73,-209.048 197.69,-415.627 308.64,-617.267 l 205.75,-360.073 c 117.61,-219.747 240.16,-421.251 360.08,-634.414 217.6,-379.414 444.35,-756.359 668.7,-1131.657 124.44,-206.579 233.66,-410.689 360.08,-617.268 251.02,-401.636 511.83,-802.722 771.58,-1200.243 l 325.78,-497.243 c 361.97,-537.427 737.07,-1066.227 1114.51,-1594.608 l 17.15,-51.439 188.61,-257.195 c 328.63,-453.486 669.83,-896.272 1011.63,-1337.413 l 377.22,-480.097 c 306.33,-384.352 627.67,-766.921 943.05,-1148.804 l 342.93,-428.658 c 426.32,-499.575 861.4,-988.177 1303.12,-1474.584 l 34.29,-34.292 51.41,-51.439 c 430.77,-470.77 874.02,-928.782 1320.27,-1388.852 l 411.51,-428.658 c 348.55,-348.139 707.77,-687.225 1063.07,-1028.78 l 428.69,-411.566 c 475.54,-446.079 949.35,-892.295 1440.29,-1320.267 l 34.29,-17.146 240.05,-222.903 c 430.85,-372.829 876.25,-733.588 1320.27,-1097.364 l 531.53,-428.658 c 359.75,-288.882 726.68,-577.489 1097.37,-857.317 l 582.97,-445.831 c 406.41,-299.581 821.46,-605.197 1234.54,-891.609 l 445.8,-308.634 120.03,-85.732 c 393.15,-268.305 800.66,-528.655 1200.24,-788.73 l 514.39,-342.927 c 614.96,-388.467 1238.18,-777.62 1868.95,-1148.803 l 514.39,-291.488 c 464.18,-266.66 918.24,-533.594 1388.85,-788.731 255.3,-138.268 531.21,-261.035 788.73,-394.365 333.08,-175.304 654.99,-343.201 994.49,-514.39 l 240.05,-120.024 394.36,-188.61 c 525.99,-251.022 1059.31,-499.438 1594.61,-737.292 l 342.92,-154.317 c 610.52,-269.128 1227.79,-525.5 1851.81,-771.584 l 445.8,-171.463 c 579.33,-222.217 1162.85,-446.628 1748.93,-651.561 l 222.9,-85.731 c 646.24,-223.863 1299.47,-430.304 1954.68,-634.414 l 462.95,-137.171 c 666.16,-202.463 1319.72,-439.083 2006.12,-565.828 43680.33,-7966.868 56377.11,26251.02 56377.11,26251.02 -10653.22,-13884.407 -29571.76,-17554.268 -47495.31,-13477.01 -679.33,153.082 -1344.17,372.418 -2006.12,565.829 l -497.25,154.317 c -646.24,197.525 -1282.87,396.697 -1920.39,617.267 l -257.19,102.878 c -570.6,199.172 -1138.08,416.313 -1697.49,634.414 l -480.09,188.61 c -617.27,244.438 -1230.56,490.247 -1834.66,754.438 l -377.22,154.317 c -519.57,235.385 -1028.12,474.061 -1543.17,720.145 l -445.8,222.903 c -401.88,193.41 -787.64,393.542 -1183.1,600.121 -268.39,137.445 -541.6,284.629 -805.88,428.658 -484.18,262.544 -965.16,530.164 -1440.29,805.877 l -480.09,257.195 c -632.99,370.361 -1253.99,759.513 -1868.95,1148.804 l -497.25,342.926 c -446.24,288.881 -897.59,574.059 -1337.41,874.462 l -411.51,308.634 c -428.55,299.581 -855.67,600.122 -1268.83,908.755 l -548.68,411.512 c -379.74,290.527 -756.44,590.382 -1131.66,891.609 l -514.39,411.512 c -477.43,390.936 -939.84,778.991 -1406,1183.096 l -154.31,120.024 c -501.88,441.964 -1003.35,901.897 -1491.73,1354.56 l -411.52,411.511 c -359.74,344.024 -712.38,690.38 -1063.07,1045.926 l -428.66,411.512 c -444.26,455.955 -876.87,920.552 -1303.12,1388.852 l -68.58,68.585 c -450.69,494.637 -887.19,998.602 -1320.27,1508.877 l -342.93,411.511 c -324.43,388.468 -647.03,787.222 -960.19,1183.097 l -342.93,428.658 c -377.76,486.407 -759.29,981.592 -1114.51,1474.584 -9949.94,13571.657 -13526.01,32295.166 -5572.55,47666.776 z"
           id="signet"
           inkscape:connector-curvature="0" />
      </g>
    </g>
  </g>
</svg>
