<?xml version="1.0" encoding="UTF-8" standalone="no"?>
<svg
   xmlns:dc="http://purl.org/dc/elements/1.1/"
   xmlns:cc="http://creativecommons.org/ns#"
   xmlns:rdf="http://www.w3.org/1999/02/22-rdf-syntax-ns#"
   xmlns:svg="http://www.w3.org/2000/svg"
   xmlns="http://www.w3.org/2000/svg"
   xmlns:sodipodi="http://sodipodi.sourceforge.net/DTD/sodipodi-0.dtd"
   xmlns:inkscape="http://www.inkscape.org/namespaces/inkscape"
   inkscape:version="0.92.3 (2405546, 2018-03-11)"
   sodipodi:docname="nodejs-logo.svg"
   id="svg58"
   viewBox="0 0 74.999954 75.000137"
   version="1.2"
   height="100"
   width="100"
   enable-background="new">
  <sodipodi:namedview
     inkscape:guide-bbox="true"
     showguides="true"
     inkscape:snap-global="false"
     inkscape:current-layer="layer1"
     inkscape:window-maximized="1"
     inkscape:window-y="33"
     inkscape:window-x="0"
     inkscape:cy="45.950009"
     inkscape:cx="-33.824974"
     inkscape:zoom="2.5197721"
     inkscape:snap-page="true"
     inkscape:snap-text-baseline="true"
     inkscape:snap-center="true"
     inkscape:snap-object-midpoints="true"
     inkscape:snap-midpoints="true"
     inkscape:snap-smooth-nodes="true"
     inkscape:snap-intersection-paths="true"
     inkscape:object-paths="true"
     inkscape:snap-nodes="true"
     inkscape:snap-bbox-midpoints="true"
     inkscape:snap-bbox-edge-midpoints="true"
     inkscape:bbox-paths="true"
     inkscape:bbox-nodes="true"
     inkscape:snap-bbox="false"
     showgrid="false"
     id="namedview60"
     inkscape:window-height="709"
     inkscape:window-width="1366"
     inkscape:pageshadow="2"
     inkscape:pageopacity="0"
     guidetolerance="10"
     gridtolerance="10"
     objecttolerance="10"
     borderopacity="1"
     bordercolor="#666666"
     pagecolor="#ffffff" />
  <metadata
     id="metadata62">
    <rdf:RDF>
      <cc:Work
         rdf:about="">
        <dc:format>image/svg+xml</dc:format>
        <dc:type
           rdf:resource="http://purl.org/dc/dcmitype/StillImage" />
        <dc:title />
      </cc:Work>
    </rdf:RDF>
  </metadata>
  <defs
     id="defs36">
    <inkscape:path-effect
       effect="bspline"
       id="path-effect998"
       is_visible="true"
       weight="33.333333"
       steps="2"
       helper_size="0"
       apply_no_weight="true"
       apply_with_weight="true"
       only_selected="false" />
    <inkscape:path-effect
       only_selected="false"
       apply_with_weight="true"
       apply_no_weight="true"
       helper_size="0"
       steps="2"
       weight="33.333333"
       is_visible="true"
       id="path-effect4819"
       effect="bspline" />
    <inkscape:path-effect
       only_selected="false"
       apply_with_weight="true"
       apply_no_weight="true"
       helper_size="0"
       steps="2"
       weight="33.333333"
       is_visible="true"
       id="path-effect4811"
       effect="bspline" />
    <clipPath
       id="a">
      <path
         inkscape:connector-curvature="0"
         id="path2"
         d="m 239.03,226.605 -42.13,24.317 c -1.578,0.91 -2.546,2.59 -2.546,4.406 v 48.668 c 0,1.817 0.968,3.496 2.546,4.406 l 42.133,24.336 c 1.575,0.907 3.517,0.907 5.09,0 l 42.126,-24.336 c 1.57,-0.91 2.54,-2.59 2.54,-4.406 v -48.668 c 0,-1.816 -0.97,-3.496 -2.55,-4.406 l -42.12,-24.317 c -0.79,-0.453 -1.67,-0.68 -2.55,-0.68 -0.88,0 -1.76,0.227 -2.55,0.68" />
    </clipPath>
    <linearGradient
       gradientUnits="userSpaceOnUse"
       gradientTransform="matrix(-38.064915,77.652126,-77.652126,-38.064915,258.72325,244.62943)"
       x2="1.251"
       x1="-0.34799999"
       id="b">
      <stop
         id="stop5"
         stop-color="#3E863D"
         offset=".3" />
      <stop
         id="stop7"
         stop-color="#55934F"
         offset=".5" />
      <stop
         id="stop9"
         stop-color="#5AAD45"
         offset=".8" />
    </linearGradient>
    <clipPath
       id="c">
      <path
         inkscape:connector-curvature="0"
         id="path12"
         d="m 195.398,307.086 c 0.403,0.523 0.907,0.976 1.5,1.316 l 36.14,20.875 6.02,3.46 c 0.9,0.52 1.926,0.74 2.934,0.665 0.336,-0.027 0.672,-0.09 1,-0.183 l 44.434,-81.36 c -0.34,-0.37 -0.738,-0.68 -1.184,-0.94 l -27.586,-15.93 -14.582,-8.39 c -0.414,-0.24 -0.863,-0.41 -1.32,-0.53 z m 0,0" />
    </clipPath>
    <linearGradient
       gradientUnits="userSpaceOnUse"
       gradientTransform="matrix(106.8057,-78.916731,78.916731,106.8057,235.18824,285.39477)"
       x2="0.58200002"
       x1="-0.456"
       id="d">
      <stop
         id="stop15"
         stop-color="#3E863D"
         offset=".57" />
      <stop
         id="stop17"
         stop-color="#619857"
         offset=".72" />
      <stop
         id="stop19"
         stop-color="#76AC64"
         offset="1" />
    </linearGradient>
    <clipPath
       id="e">
      <path
         inkscape:connector-curvature="0"
         id="path22"
         d="m 241.066,225.953 c -0.707,0.07 -1.398,0.29 -2.035,0.652 l -42.01,24.247 45.3,82.51 c 0.63,-0.09 1.25,-0.3 1.81,-0.624 l 42.13,-24.336 c 1.3,-0.754 2.19,-2.03 2.46,-3.476 l -46.18,-78.89 c -0.34,-0.067 -0.68,-0.102 -1.03,-0.102 -0.14,0 -0.28,0.007 -0.42,0.02" />
    </clipPath>
    <linearGradient
       gradientUnits="userSpaceOnUse"
       gradientTransform="matrix(97.417,0,0,97.417,192.862,279.652)"
       x2="0.98400003"
       x1="0.043000001"
       id="f">
      <stop
         id="stop25"
         stop-color="#6BBF47"
         offset=".16" />
      <stop
         id="stop27"
         stop-color="#79B461"
         offset=".38" />
      <stop
         id="stop29"
         stop-color="#75AC64"
         offset=".47" />
      <stop
         id="stop31"
         stop-color="#659E5A"
         offset=".7" />
      <stop
         id="stop33"
         stop-color="#3E863D"
         offset=".9" />
    </linearGradient>
    <inkscape:path-effect
       effect="bspline"
       id="path-effect998-3"
       is_visible="true"
       weight="33.333333"
       steps="2"
       helper_size="0"
       apply_no_weight="true"
       apply_with_weight="true"
       only_selected="false" />
  </defs>
  <g
     transform="translate(0,-195.92886)"
     inkscape:label="logo"
     id="layer1"
     inkscape:groupmode="layer">
    <g
       inkscape:groupmode="layer"
       id="g48"
       transform="matrix(0.67800407,0,0,0.67800407,-126.28648,43.810432)"
       clip-path="url(#a)"
       style="fill:#7fbc00;fill-opacity:1" />
    <flowRoot
       style="font-style:normal;font-variant:normal;font-weight:normal;font-stretch:normal;font-size:40px;line-height:1.25;font-family:Sawasdee;-inkscape-font-specification:Sawasdee;letter-spacing:0px;word-spacing:0px;fill:#000000;fill-opacity:1;stroke:none"
       id="flowRoot840"
       xml:space="preserve"><flowRegion
         id="flowRegion842"><rect
           y="-23.576502"
           x="-151.66206"
           height="44.936909"
           width="23.872734"
           id="rect844" /></flowRegion><flowPara
         id="flowPara846" /></flowRoot>    <g
       id="g1040"
       transform="matrix(0.99331003,0,0,0.99331003,0.25087387,1.5616345)">
      <path
         inkscape:original-d="m 37.499977,197.3102 c 2.607087,1.50452 5.213745,3.00948 7.819974,4.51487 2.694073,1.67873 5.213743,3.00947 7.819973,4.51486 2.852226,1.53616 5.213744,3.00948 7.819974,4.51486 2.606949,1.50445 5.213742,3.00948 7.819972,4.51486 4.29e-4,3.00933 4.29e-4,6.0194 0,9.02973 4.29e-4,3.0099 4.29e-4,6.01939 0,9.02973 0.04326,3.32583 4.29e-4,6.01939 0,9.02973 4.29e-4,3.0099 4.29e-4,6.01938 0,9.02972 -2.6066,1.50474 -5.212887,3.00949 -7.819972,4.51487 -2.606737,1.50482 -5.212888,3.00947 -7.819974,4.51486 -2.606737,1.50482 -5.212887,3.00949 -7.819973,4.51486 -2.606736,1.50483 -5.212887,3.00949 -7.819974,4.51486 -2.606736,-1.50567 -5.212887,-3.01033 -7.819974,-4.51486 -2.606363,-1.50545 -5.212886,-3.01033 -7.819972,-4.51486 -2.606366,-1.50546 -5.212887,-3.01033 -7.819974,-4.51486 -2.606365,-1.50546 -5.2128867,-3.01033 -7.8199733,-4.51487 4.283e-4,-3.01049 4.283e-4,-6.02024 0,-9.02972 4.283e-4,-3.00992 4.283e-4,-6.02026 0,-9.02973 4.283e-4,-3.00991 4.283e-4,-6.02025 1.2e-6,-9.02973 4.271e-4,-3.00991 4.271e-4,-6.02024 0,-9.02973 2.8646763,-1.71384 5.2137421,-3.01034 7.8199721,-4.51486 2.606579,-1.5051 5.213745,-3.01034 7.819975,-4.51486 2.606579,-1.5051 5.213743,-3.01034 7.819971,-4.51486 2.60658,-1.5051 5.213744,-3.01035 7.819974,-4.51487 z"
         inkscape:path-effect="#path-effect998"
         inkscape:connector-curvature="0"
         id="path996"
         d="m 37.500298,198.81505 c 2.60647,1.8e-4 5.213129,1.50514 7.890124,3.05071 2.676996,1.54556 5.142976,2.96929 7.848412,4.53128 2.705437,1.56198 5.114542,2.95288 7.721132,4.45779 2.60659,1.50491 5.213382,3.00995 6.516643,5.26705 1.303261,2.2571 1.303261,5.26717 1.303261,8.27728 0,3.01012 0,6.01961 0,9.1877 0,3.16808 0,5.86164 0,8.87176 0,3.01012 0,6.0196 -1.30326,8.27721 -1.303261,2.25761 -3.909551,3.76235 -6.516461,5.26745 -2.606911,1.5051 -5.213057,3.00976 -7.819971,4.51486 -2.606913,1.5051 -5.213068,3.00977 -7.819979,4.51487 -2.606911,1.5051 -5.213062,3.00976 -7.820155,3.0098 -2.607094,3e-5 -5.213245,-1.50463 -7.819969,-3.00962 -2.606724,-1.50499 -5.213248,-3.00987 -7.819975,-4.51486 -2.606727,-1.50499 -5.213247,-3.00987 -7.819973,-4.51486 -2.606726,-1.505 -5.2132443,-3.00987 -6.5166438,-5.26764 -1.3033995,-2.25776 -1.3033995,-5.26751 -1.3033995,-8.27721 0,-3.0097 0,-6.02004 2e-7,-9.02973 2e-7,-3.00969 6e-7,-6.02003 8e-7,-9.02973 2e-7,-3.00969 2e-7,-6.02002 1.4453113,-8.35922 1.4453111,-2.33919 3.768512,-3.68049 6.374918,-5.1853 2.606405,-1.50481 5.213569,-3.01005 7.819974,-4.51486 2.606406,-1.50481 5.213567,-3.01005 7.819972,-4.51486 2.606405,-1.50481 5.213569,-3.01006 7.820038,-3.00987 z"
         style="fill:#404037;fill-opacity:1;stroke:none;stroke-width:0.42836612px;stroke-linecap:butt;stroke-linejoin:miter;stroke-opacity:1" />
      <path
         inkscape:original-d="m 37.499975,201.18625 c 2.32731,1.34307 4.654235,2.68653 6.980778,4.03035 2.40496,1.49859 4.654233,2.68653 6.980779,4.03036 2.54614,1.37131 4.654233,2.68652 6.980777,4.03035 2.327188,1.343 4.654233,2.68652 6.980779,4.03035 3.82e-4,2.68639 3.82e-4,5.37343 0,8.06072 3.82e-4,2.6869 3.82e-4,5.37342 0,8.0607 0.03859,2.96893 3.82e-4,5.37343 0,8.06071 3.82e-4,2.68691 3.82e-4,5.37342 0,8.06071 -2.326872,1.34326 -4.653473,2.68651 -6.980779,4.03036 -2.326997,1.34334 -4.653468,2.68652 -6.980777,4.03035 -2.326997,1.34333 -4.653471,2.68651 -6.980779,4.03035 -2.326996,1.34334 -4.653468,2.68653 -6.980778,4.03036 -2.326996,-1.34409 -4.653469,-2.68729 -6.980777,-4.03036 -2.326665,-1.34389 -4.65347,-2.68728 -6.980778,-4.03035 -2.326665,-1.3439 -4.65347,-2.68729 -6.980779,-4.03035 -2.326667,-1.3439 -4.653468,-2.68729 -6.9807751,-4.03036 3.822e-4,-2.68742 3.822e-4,-5.37418 0,-8.06071 3.822e-4,-2.68691 3.822e-4,-5.3742 0,-8.06071 3.822e-4,-2.6869 3.822e-4,-5.37418 0,-8.0607 3.822e-4,-2.68691 3.822e-4,-5.37419 0,-8.06072 2.5572531,-1.52993 4.6542341,-2.68728 6.9807761,-4.03035 2.326856,-1.34357 4.654234,-2.68728 6.980778,-4.03035 2.326856,-1.34358 4.654234,-2.68727 6.980778,-4.03036 2.326857,-1.34357 4.654233,-2.68728 6.980777,-4.03035 z"
         inkscape:path-effect="#path-effect998-3"
         inkscape:connector-curvature="0"
         id="path996-6"
         d="m 37.500262,202.52961 c 2.326762,1.6e-4 4.653692,1.34361 7.043405,2.72332 2.389714,1.3797 4.591061,2.65065 7.006163,4.04501 2.415102,1.39436 4.565675,2.63599 6.892541,3.97941 2.326866,1.34341 4.653911,2.68693 5.817314,4.70181 1.163403,2.01489 1.163403,4.70193 1.163403,7.38902 0,2.6871 0,5.37362 0,8.20172 0,2.82811 0,5.23261 0,7.91971 0,2.68709 0,5.3736 -1.163401,7.38894 -1.163401,2.01533 -3.489995,3.35859 -5.817152,4.70218 -2.327158,1.34358 -4.653625,2.68677 -6.980778,4.03035 -2.327152,1.34358 -4.653623,2.68677 -6.980778,4.03035 -2.327155,1.34359 -4.653627,2.68678 -6.980943,2.68681 -2.327315,4e-5 -4.653792,-1.34316 -6.980775,-2.68664 -2.326984,-1.34349 -4.653793,-2.68687 -6.98078,-4.03035 -2.326986,-1.34349 -4.653796,-2.68687 -6.98078,-4.03036 -2.326985,-1.34348 -4.65379,-2.68687 -5.817312,-4.70234 -1.1635231,-2.01547 -1.1635231,-4.70223 -1.1635231,-7.38895 0,-2.68672 0,-5.37401 0,-8.06072 0,-2.6867 0,-5.37398 0,-8.06069 0,-2.68672 0,-5.374 1.2902101,-7.46217 1.290209,-2.08816 3.364093,-3.28552 5.690792,-4.62884 2.326699,-1.34332 4.654077,-2.68703 6.980779,-4.03035 2.326701,-1.34332 4.654069,-2.68703 6.980773,-4.03036 2.326704,-1.34332 4.65408,-2.68703 6.980842,-2.68686 z"
         style="fill:#7fbc00;fill-opacity:1;stroke:none;stroke-width:0.38239628px;stroke-linecap:butt;stroke-linejoin:miter;stroke-opacity:1" />
      <g
         id="text852"
         style="font-style:normal;font-variant:normal;font-weight:bold;font-stretch:normal;font-size:13.15030289px;line-height:1.25;font-family:'Mukti Narrow';-inkscape-font-specification:'Mukti Narrow Bold';letter-spacing:0px;word-spacing:0px;fill:#ffffff;fill-opacity:1;stroke:none;stroke-width:0.32875755"
         aria-label="NODE.JS"
         transform="matrix(0.93081733,0,0,0.93081733,2.5943653,16.218879)">
        <path
           inkscape:connector-curvature="0"
           id="path842"
           style="font-style:normal;font-variant:normal;font-weight:bold;font-stretch:normal;font-family:Lato;-inkscape-font-specification:'Lato Bold';fill:#ffffff;stroke-width:0.32875755"
           d="m 19.125492,228.60023 v 9.50766 h -0.907371 q -0.210405,0 -0.355058,-0.0658 -0.138079,-0.0723 -0.269582,-0.2367 l -4.964239,-6.33845 q 0.03945,0.43396 0.03945,0.80217 v 5.83873 h -1.558311 v -9.50766 h 0.927096 q 0.111778,0 0.19068,0.0131 0.08548,0.007 0.144653,0.0394 0.06575,0.0263 0.124928,0.0855 0.05918,0.0526 0.131503,0.14466 l 4.983965,6.36474 q -0.01973,-0.23013 -0.03288,-0.45368 -0.01315,-0.22356 -0.01315,-0.41424 v -5.77955 z" />
        <path
           inkscape:connector-curvature="0"
           id="path844"
           style="font-style:normal;font-variant:normal;font-weight:bold;font-stretch:normal;font-family:Lato;-inkscape-font-specification:'Lato Bold';fill:#ffffff;stroke-width:0.32875755"
           d="m 30.322769,233.35406 q 0,1.04545 -0.348483,1.93967 -0.341908,0.88765 -0.973122,1.53859 -0.631215,0.65094 -1.51886,1.01914 -0.887646,0.36164 -1.972546,0.36164 -1.078325,0 -1.96597,-0.36164 -0.887646,-0.3682 -1.525435,-1.01914 -0.631215,-0.65094 -0.979698,-1.53859 -0.348483,-0.89422 -0.348483,-1.93967 0,-1.04545 0.348483,-1.93309 0.348483,-0.89422 0.979698,-1.54516 0.637789,-0.65094 1.525435,-1.01258 0.887645,-0.36821 1.96597,-0.36821 0.723267,0 1.361057,0.17096 0.637789,0.16438 1.170376,0.47341 0.532588,0.30246 0.953397,0.74299 0.427385,0.43396 0.723267,0.97312 0.295882,0.53917 0.44711,1.17038 0.157804,0.63121 0.157804,1.32818 z m -1.808167,0 q 0,-0.78244 -0.210404,-1.40051 -0.210405,-0.62464 -0.598339,-1.0586 -0.387934,-0.43396 -0.946822,-0.66409 -0.552313,-0.23013 -1.249279,-0.23013 -0.696966,0 -1.255854,0.23013 -0.552312,0.23013 -0.946822,0.66409 -0.387934,0.43396 -0.598338,1.0586 -0.210405,0.61807 -0.210405,1.40051 0,0.78244 0.210405,1.40708 0.210404,0.61807 0.598338,1.05203 0.39451,0.42738 0.946822,0.65751 0.558888,0.23013 1.255854,0.23013 0.696966,0 1.249279,-0.23013 0.558888,-0.23013 0.946822,-0.65751 0.387934,-0.43396 0.598339,-1.05203 0.210404,-0.62464 0.210404,-1.40708 z" />
        <path
           inkscape:connector-curvature="0"
           id="path846"
           style="font-style:normal;font-variant:normal;font-weight:bold;font-stretch:normal;font-family:Lato;-inkscape-font-specification:'Lato Bold';fill:#ffffff;stroke-width:0.32875755"
           d="m 40.331384,233.35406 q 0,1.04545 -0.348483,1.91994 -0.348483,0.8745 -0.979698,1.50571 -0.631214,0.63122 -1.51886,0.9797 -0.887645,0.34848 -1.972545,0.34848 h -3.622909 v -9.50766 h 3.622909 q 1.0849,0 1.972545,0.35505 0.887646,0.34849 1.51886,0.9797 0.631215,0.62464 0.979698,1.49914 0.348483,0.87449 0.348483,1.91994 z m -1.814742,0 q 0,-0.78244 -0.210405,-1.40051 -0.20383,-0.62464 -0.598339,-1.05202 -0.387934,-0.43396 -0.946822,-0.66409 -0.552312,-0.23013 -1.249278,-0.23013 H 33.66418 v 6.6935 h 1.847618 q 0.696966,0 1.249278,-0.23013 0.558888,-0.23013 0.946822,-0.65751 0.394509,-0.43396 0.598339,-1.05203 0.210405,-0.62464 0.210405,-1.40708 z" />
        <path
           inkscape:connector-curvature="0"
           id="path848"
           style="font-style:normal;font-variant:normal;font-weight:bold;font-stretch:normal;font-family:Lato;-inkscape-font-specification:'Lato Bold';fill:#ffffff;stroke-width:0.32875755"
           d="m 43.655326,230.00731 v 2.63663 h 3.327027 v 1.36106 h -3.327027 v 2.68924 h 4.221247 v 1.41365 h -5.996538 v -9.50766 h 5.996538 v 1.40708 z" />
        <path
           inkscape:connector-curvature="0"
           id="path850"
           style="font-style:normal;font-variant:normal;font-weight:bold;font-stretch:normal;font-family:Lato;-inkscape-font-specification:'Lato Bold';fill:#ffffff;stroke-width:0.32875755"
           d="m 48.93805,237.21367 q 0,-0.20383 0.07233,-0.38793 0.0789,-0.1841 0.210405,-0.31561 0.131503,-0.1315 0.315607,-0.2104 0.184104,-0.0789 0.394509,-0.0789 0.210405,0 0.387934,0.0789 0.184104,0.0789 0.315607,0.2104 0.138078,0.13151 0.21698,0.31561 0.0789,0.1841 0.0789,0.38793 0,0.21041 -0.0789,0.39451 -0.0789,0.17753 -0.21698,0.30904 -0.131503,0.1315 -0.315607,0.20383 -0.177529,0.0789 -0.387934,0.0789 -0.210405,0 -0.394509,-0.0789 -0.184104,-0.0723 -0.315607,-0.20383 -0.131503,-0.13151 -0.210405,-0.30904 -0.07233,-0.1841 -0.07233,-0.39451 z" />
        <path
           inkscape:connector-curvature="0"
           id="path852"
           style="font-style:normal;font-variant:normal;font-weight:bold;font-stretch:normal;font-family:Lato;-inkscape-font-specification:'Lato Bold';fill:#ffffff;stroke-width:0.32875755"
           d="m 56.187567,234.72827 q 0,0.80217 -0.197254,1.44653 -0.197255,0.64437 -0.591764,1.09805 -0.387934,0.45369 -0.973122,0.69697 -0.585189,0.24328 -1.361056,0.24328 -0.355059,0 -0.696967,-0.046 -0.341907,-0.0394 -0.716691,-0.1315 0.01972,-0.26301 0.04603,-0.52601 0.0263,-0.26301 0.04603,-0.52602 0.01973,-0.14465 0.111778,-0.23013 0.09863,-0.0921 0.276156,-0.0921 0.111778,0 0.289307,0.046 0.184104,0.046 0.46026,0.046 0.374784,0 0.664091,-0.1052 0.289306,-0.11178 0.479986,-0.34848 0.197254,-0.23671 0.295881,-0.61149 0.09863,-0.38136 0.09863,-0.92052 v -6.16749 h 1.768715 z" />
        <path
           inkscape:connector-curvature="0"
           id="path854"
           style="font-style:normal;font-variant:normal;font-weight:bold;font-stretch:normal;font-family:Lato;-inkscape-font-specification:'Lato Bold';fill:#ffffff;stroke-width:0.32875755"
           d="m 63.278046,230.32949 q -0.0789,0.13808 -0.170954,0.20383 -0.08548,0.0592 -0.21698,0.0592 -0.138078,0 -0.302457,-0.0986 -0.157804,-0.1052 -0.381359,-0.23013 -0.223555,-0.12493 -0.526012,-0.22356 -0.295882,-0.1052 -0.703541,-0.1052 -0.368209,0 -0.644365,0.0921 -0.276156,0.0855 -0.466836,0.24328 -0.184104,0.15781 -0.276156,0.38136 -0.09205,0.21698 -0.09205,0.47999 0,0.33533 0.184104,0.55889 0.19068,0.22355 0.499712,0.38136 0.309032,0.1578 0.703541,0.28273 0.394509,0.12493 0.808743,0.26958 0.414235,0.13808 0.808744,0.32876 0.394509,0.1841 0.703541,0.47341 0.309032,0.28273 0.493137,0.69696 0.190679,0.41424 0.190679,1.006 0,0.64437 -0.223555,1.20983 -0.21698,0.55889 -0.644365,0.9797 -0.42081,0.41423 -1.032299,0.65751 -0.611489,0.23671 -1.400507,0.23671 -0.453685,0 -0.894221,-0.0921 -0.440535,-0.0855 -0.848194,-0.24986 -0.401084,-0.16438 -0.756143,-0.39451 -0.355058,-0.23013 -0.631214,-0.51286 l 0.519437,-0.8482 q 0.06575,-0.0921 0.170954,-0.15122 0.105202,-0.0658 0.223555,-0.0658 0.164379,0 0.355058,0.13808 0.19068,0.13151 0.453686,0.29588 0.263006,0.16438 0.611489,0.30246 0.355058,0.1315 0.848194,0.1315 0.756143,0 1.170377,-0.35505 0.414235,-0.36164 0.414235,-1.0323 0,-0.37479 -0.19068,-0.61149 -0.184104,-0.23671 -0.493136,-0.39451 -0.309032,-0.16438 -0.703541,-0.27616 -0.394509,-0.11178 -0.802169,-0.24328 -0.407659,-0.1315 -0.802168,-0.31561 -0.394509,-0.1841 -0.703541,-0.47998 -0.309032,-0.29588 -0.499712,-0.73642 -0.184104,-0.44711 -0.184104,-1.09805 0,-0.51944 0.20383,-1.01257 0.210404,-0.49314 0.604914,-0.8745 0.394509,-0.38136 0.973122,-0.61149 0.578613,-0.23013 1.328181,-0.23013 0.841619,0 1.551735,0.26301 0.710117,0.26301 1.209828,0.73642 z" />
      </g>
    </g>
  </g>
</svg>
