<?xml version="1.0" encoding="UTF-8" standalone="no"?>
<svg
   xmlns:dc="http://purl.org/dc/elements/1.1/"
   xmlns:cc="http://creativecommons.org/ns#"
   xmlns:rdf="http://www.w3.org/1999/02/22-rdf-syntax-ns#"
   xmlns:svg="http://www.w3.org/2000/svg"
   xmlns="http://www.w3.org/2000/svg"
   xmlns:sodipodi="http://sodipodi.sourceforge.net/DTD/sodipodi-0.dtd"
   xmlns:inkscape="http://www.inkscape.org/namespaces/inkscape"
   inkscape:version="0.92.3 (2405546, 2018-03-11)"
   sodipodi:docname="nodejs-logo.svg"
   id="svg58"
   viewBox="0 0 74.999954 75.000137"
   version="1.2"
   height="100"
   width="100">
  <metadata
     id="metadata62">
    <rdf:RDF>
      <cc:Work
         rdf:about="">
        <dc:format>image/svg+xml</dc:format>
        <dc:type
           rdf:resource="http://purl.org/dc/dcmitype/StillImage" />
        <dc:title />
      </cc:Work>
    </rdf:RDF>
  </metadata>
  <sodipodi:namedview
     inkscape:guide-bbox="true"
     showguides="true"
     inkscape:snap-global="false"
     inkscape:current-layer="layer1"
     inkscape:window-maximized="1"
     inkscape:window-y="0"
     inkscape:window-x="0"
     inkscape:cy="57.146744"
     inkscape:cx="-15.294774"
     inkscape:zoom="2.5197721"
     inkscape:snap-page="true"
     inkscape:snap-text-baseline="true"
     inkscape:snap-center="true"
     inkscape:snap-object-midpoints="true"
     inkscape:snap-midpoints="true"
     inkscape:snap-smooth-nodes="true"
     inkscape:snap-intersection-paths="true"
     inkscape:object-paths="true"
     inkscape:snap-nodes="true"
     inkscape:snap-bbox-midpoints="true"
     inkscape:snap-bbox-edge-midpoints="true"
     inkscape:bbox-paths="true"
     inkscape:bbox-nodes="true"
     inkscape:snap-bbox="true"
     showgrid="false"
     id="namedview60"
     inkscape:window-height="703"
     inkscape:window-width="1366"
     inkscape:pageshadow="2"
     inkscape:pageopacity="0"
     guidetolerance="10"
     gridtolerance="10"
     objecttolerance="10"
     borderopacity="1"
     bordercolor="#666666"
     pagecolor="#ffffff" />
  <defs
     id="defs36">
    <clipPath
       id="a">
      <path
         d="m 239.03,226.605 -42.13,24.317 c -1.578,0.91 -2.546,2.59 -2.546,4.406 v 48.668 c 0,1.817 0.968,3.496 2.546,4.406 l 42.133,24.336 c 1.575,0.907 3.517,0.907 5.09,0 l 42.126,-24.336 c 1.57,-0.91 2.54,-2.59 2.54,-4.406 v -48.668 c 0,-1.816 -0.97,-3.496 -2.55,-4.406 l -42.12,-24.317 c -0.79,-0.453 -1.67,-0.68 -2.55,-0.68 -0.88,0 -1.76,0.227 -2.55,0.68"
         id="path2"
         inkscape:connector-curvature="0" />
    </clipPath>
    <linearGradient
       id="b"
       x1="-0.34799999"
       x2="1.251"
       gradientTransform="matrix(-38.064915,77.652126,-77.652126,-38.064915,258.72325,244.62943)"
       gradientUnits="userSpaceOnUse">
      <stop
         offset=".3"
         stop-color="#3E863D"
         id="stop5" />
      <stop
         offset=".5"
         stop-color="#55934F"
         id="stop7" />
      <stop
         offset=".8"
         stop-color="#5AAD45"
         id="stop9" />
    </linearGradient>
    <clipPath
       id="c">
      <path
         d="m 195.398,307.086 c 0.403,0.523 0.907,0.976 1.5,1.316 l 36.14,20.875 6.02,3.46 c 0.9,0.52 1.926,0.74 2.934,0.665 0.336,-0.027 0.672,-0.09 1,-0.183 l 44.434,-81.36 c -0.34,-0.37 -0.738,-0.68 -1.184,-0.94 l -27.586,-15.93 -14.582,-8.39 c -0.414,-0.24 -0.863,-0.41 -1.32,-0.53 z m 0,0"
         id="path12"
         inkscape:connector-curvature="0" />
    </clipPath>
    <linearGradient
       id="d"
       x1="-0.456"
       x2="0.58200002"
       gradientTransform="matrix(106.8057,-78.916731,78.916731,106.8057,235.18824,285.39477)"
       gradientUnits="userSpaceOnUse">
      <stop
         offset=".57"
         stop-color="#3E863D"
         id="stop15" />
      <stop
         offset=".72"
         stop-color="#619857"
         id="stop17" />
      <stop
         offset="1"
         stop-color="#76AC64"
         id="stop19" />
    </linearGradient>
    <clipPath
       id="e">
      <path
         d="m 241.066,225.953 c -0.707,0.07 -1.398,0.29 -2.035,0.652 l -42.01,24.247 45.3,82.51 c 0.63,-0.09 1.25,-0.3 1.81,-0.624 l 42.13,-24.336 c 1.3,-0.754 2.19,-2.03 2.46,-3.476 l -46.18,-78.89 c -0.34,-0.067 -0.68,-0.102 -1.03,-0.102 -0.14,0 -0.28,0.007 -0.42,0.02"
         id="path22"
         inkscape:connector-curvature="0" />
    </clipPath>
    <linearGradient
       id="f"
       x1="0.043000001"
       x2="0.98400003"
       gradientTransform="matrix(97.417,0,0,97.417,192.862,279.652)"
       gradientUnits="userSpaceOnUse">
      <stop
         offset=".16"
         stop-color="#6BBF47"
         id="stop25" />
      <stop
         offset=".38"
         stop-color="#79B461"
         id="stop27" />
      <stop
         offset=".47"
         stop-color="#75AC64"
         id="stop29" />
      <stop
         offset=".7"
         stop-color="#659E5A"
         id="stop31" />
      <stop
         offset=".9"
         stop-color="#3E863D"
         id="stop33" />
    </linearGradient>
  </defs>
  <g
     inkscape:groupmode="layer"
     id="layer1"
     inkscape:label="logo"
     transform="translate(0,-195.92886)">
    <g
       style="fill:#7fbc00;fill-opacity:1"
       clip-path="url(#a)"
       transform="matrix(0.67800407,0,0,0.67800407,-126.28648,43.810432)"
       id="g48" />
    <flowRoot
       xml:space="preserve"
       id="flowRoot840"
       style="font-style:normal;font-variant:normal;font-weight:normal;font-stretch:normal;font-size:40px;line-height:1.25;font-family:Sawasdee;-inkscape-font-specification:Sawasdee;letter-spacing:0px;word-spacing:0px;fill:#000000;fill-opacity:1;stroke:none"><flowRegion
         id="flowRegion842"><rect
           id="rect844"
           width="23.872734"
           height="44.936909"
           x="-151.66206"
           y="-23.576502" /></flowRegion><flowPara
         id="flowPara846" /></flowRoot>    <g
       id="g873">
      <path
         sodipodi:nodetypes="ccssccccccccccc"
         inkscape:connector-curvature="0"
         id="path1766"
         d="m 37.61916,196.67179 c -0.3334,-0.008 -0.662615,0.0757 -0.951553,0.24215 L 6.3711574,214.32187 c -0.5624282,0.32316 -0.910491,0.92149 -0.9118256,1.57015 l -0.071887,34.94071 c -0.00183,0.64912 0.3428986,1.24988 0.9042588,1.57583 10.0746234,5.84456 20.1480504,11.68822 30.2226714,17.53277 0.561217,0.32558 1.253484,0.32705 1.816085,0.004 l 30.298341,-17.40792 c 0.561791,-0.3235 0.908573,-0.92189 0.909934,-1.57016 0.02423,-11.64717 0.04954,-23.29355 0.07378,-34.94071 0.0015,-0.64955 -0.344035,-1.25044 -0.906149,-1.57592 -10.074623,-5.84456 -20.14805,-11.68821 -30.222671,-17.53278 -0.263022,-0.15311 -0.560302,-0.23768 -0.864532,-0.24593 z"
         style="color:#000000;font-style:normal;font-variant:normal;font-weight:normal;font-stretch:normal;font-size:medium;line-height:normal;font-family:sans-serif;font-variant-ligatures:normal;font-variant-position:normal;font-variant-caps:normal;font-variant-numeric:normal;font-variant-alternates:normal;font-feature-settings:normal;text-indent:0;text-align:start;text-decoration:none;text-decoration-line:none;text-decoration-style:solid;text-decoration-color:#000000;letter-spacing:normal;word-spacing:normal;text-transform:none;writing-mode:lr-tb;direction:ltr;text-orientation:mixed;dominant-baseline:auto;baseline-shift:baseline;text-anchor:start;white-space:normal;shape-padding:0;clip-rule:nonzero;display:inline;overflow:visible;visibility:visible;opacity:1;isolation:auto;mix-blend-mode:normal;color-interpolation:sRGB;color-interpolation-filters:linearRGB;solid-color:#000000;solid-opacity:1;vector-effect:none;fill:#404037;fill-opacity:1;fill-rule:nonzero;stroke:none;stroke-width:3.63217545;stroke-linecap:round;stroke-linejoin:round;stroke-miterlimit:4;stroke-dasharray:none;stroke-dashoffset:0;stroke-opacity:1;paint-order:stroke fill markers;color-rendering:auto;image-rendering:auto;shape-rendering:auto;text-rendering:auto;enable-background:accumulate" />
      <path
         sodipodi:nodetypes="cccccccccccccccc"
         inkscape:connector-curvature="0"
         id="path1766-3"
         d="m 37.603265,201.49508 c -0.288264,-0.008 -0.572991,0.0647 -0.823115,0.20825 l -26.226481,15.07018 c -0.01045,0.006 -0.02084,0.0119 -0.03115,0.018 -0.488189,0.27954 -0.7901011,0.79836 -0.791959,1.36092 -0.021004,10.09511 -0.042942,20.19117 -0.063945,30.28629 -6.657e-4,0.56238 0.2987211,1.0824 0.785401,1.36421 8.732121,5.06573 17.463202,10.13233 26.195328,15.19808 0.486429,0.28219 1.086451,0.28346 1.574081,0.004 8.753106,-5.02936 17.506144,-10.05885 26.259263,-15.08821 0.488066,-0.28027 0.789391,-0.79976 0.790323,-1.36257 0.02107,-10.09512 0.0413,-20.18955 0.06229,-30.28465 0.0016,-0.56263 -0.297203,-1.08333 -0.783766,-1.36585 -8.732114,-5.06574 -17.463199,-10.13069 -26.195317,-15.19643 -0.228608,-0.13241 -0.486858,-0.20515 -0.750968,-0.21153 z"
         style="color:#000000;font-style:normal;font-variant:normal;font-weight:normal;font-stretch:normal;font-size:medium;line-height:normal;font-family:sans-serif;font-variant-ligatures:normal;font-variant-position:normal;font-variant-caps:normal;font-variant-numeric:normal;font-variant-alternates:normal;font-feature-settings:normal;text-indent:0;text-align:start;text-decoration:none;text-decoration-line:none;text-decoration-style:solid;text-decoration-color:#000000;letter-spacing:normal;word-spacing:normal;text-transform:none;writing-mode:lr-tb;direction:ltr;text-orientation:mixed;dominant-baseline:auto;baseline-shift:baseline;text-anchor:start;white-space:normal;shape-padding:0;clip-rule:nonzero;display:inline;overflow:visible;visibility:visible;opacity:1;isolation:auto;mix-blend-mode:normal;color-interpolation:sRGB;color-interpolation-filters:linearRGB;solid-color:#000000;solid-opacity:1;vector-effect:none;fill:#7fbc00;fill-opacity:1;fill-rule:nonzero;stroke:none;stroke-width:3.14816713;stroke-linecap:round;stroke-linejoin:round;stroke-miterlimit:4;stroke-dasharray:none;stroke-dashoffset:0;stroke-opacity:1;paint-order:stroke fill markers;color-rendering:auto;image-rendering:auto;shape-rendering:auto;text-rendering:auto;enable-background:accumulate" />
      <g
         transform="matrix(0.93874439,0,0,0.93874439,2.2971009,14.369067)"
         aria-label="NODE.JS"
         style="font-style:normal;font-variant:normal;font-weight:bold;font-stretch:normal;font-size:13.15030289px;line-height:1.25;font-family:'Mukti Narrow';-inkscape-font-specification:'Mukti Narrow Bold';letter-spacing:0px;word-spacing:0px;fill:#ffffff;fill-opacity:1;stroke:none;stroke-width:0.32875755"
         id="text852">
        <path
           d="m 19.125492,228.60023 v 9.50766 h -0.907371 q -0.210405,0 -0.355058,-0.0658 -0.138079,-0.0723 -0.269582,-0.2367 l -4.964239,-6.33845 q 0.03945,0.43396 0.03945,0.80217 v 5.83873 h -1.558311 v -9.50766 h 0.927096 q 0.111778,0 0.19068,0.0131 0.08548,0.007 0.144653,0.0394 0.06575,0.0263 0.124928,0.0855 0.05918,0.0526 0.131503,0.14466 l 4.983965,6.36474 q -0.01973,-0.23013 -0.03288,-0.45368 -0.01315,-0.22356 -0.01315,-0.41424 v -5.77955 z"
           style="font-style:normal;font-variant:normal;font-weight:bold;font-stretch:normal;font-family:Lato;-inkscape-font-specification:'Lato Bold';fill:#ffffff;stroke-width:0.32875755"
           id="path842"
           inkscape:connector-curvature="0" />
        <path
           d="m 30.322769,233.35406 q 0,1.04545 -0.348483,1.93967 -0.341908,0.88765 -0.973122,1.53859 -0.631215,0.65094 -1.51886,1.01914 -0.887646,0.36164 -1.972546,0.36164 -1.078325,0 -1.96597,-0.36164 -0.887646,-0.3682 -1.525435,-1.01914 -0.631215,-0.65094 -0.979698,-1.53859 -0.348483,-0.89422 -0.348483,-1.93967 0,-1.04545 0.348483,-1.93309 0.348483,-0.89422 0.979698,-1.54516 0.637789,-0.65094 1.525435,-1.01258 0.887645,-0.36821 1.96597,-0.36821 0.723267,0 1.361057,0.17096 0.637789,0.16438 1.170376,0.47341 0.532588,0.30246 0.953397,0.74299 0.427385,0.43396 0.723267,0.97312 0.295882,0.53917 0.44711,1.17038 0.157804,0.63121 0.157804,1.32818 z m -1.808167,0 q 0,-0.78244 -0.210404,-1.40051 -0.210405,-0.62464 -0.598339,-1.0586 -0.387934,-0.43396 -0.946822,-0.66409 -0.552313,-0.23013 -1.249279,-0.23013 -0.696966,0 -1.255854,0.23013 -0.552312,0.23013 -0.946822,0.66409 -0.387934,0.43396 -0.598338,1.0586 -0.210405,0.61807 -0.210405,1.40051 0,0.78244 0.210405,1.40708 0.210404,0.61807 0.598338,1.05203 0.39451,0.42738 0.946822,0.65751 0.558888,0.23013 1.255854,0.23013 0.696966,0 1.249279,-0.23013 0.558888,-0.23013 0.946822,-0.65751 0.387934,-0.43396 0.598339,-1.05203 0.210404,-0.62464 0.210404,-1.40708 z"
           style="font-style:normal;font-variant:normal;font-weight:bold;font-stretch:normal;font-family:Lato;-inkscape-font-specification:'Lato Bold';fill:#ffffff;stroke-width:0.32875755"
           id="path844"
           inkscape:connector-curvature="0" />
        <path
           d="m 40.331384,233.35406 q 0,1.04545 -0.348483,1.91994 -0.348483,0.8745 -0.979698,1.50571 -0.631214,0.63122 -1.51886,0.9797 -0.887645,0.34848 -1.972545,0.34848 h -3.622909 v -9.50766 h 3.622909 q 1.0849,0 1.972545,0.35505 0.887646,0.34849 1.51886,0.9797 0.631215,0.62464 0.979698,1.49914 0.348483,0.87449 0.348483,1.91994 z m -1.814742,0 q 0,-0.78244 -0.210405,-1.40051 -0.20383,-0.62464 -0.598339,-1.05202 -0.387934,-0.43396 -0.946822,-0.66409 -0.552312,-0.23013 -1.249278,-0.23013 H 33.66418 v 6.6935 h 1.847618 q 0.696966,0 1.249278,-0.23013 0.558888,-0.23013 0.946822,-0.65751 0.394509,-0.43396 0.598339,-1.05203 0.210405,-0.62464 0.210405,-1.40708 z"
           style="font-style:normal;font-variant:normal;font-weight:bold;font-stretch:normal;font-family:Lato;-inkscape-font-specification:'Lato Bold';fill:#ffffff;stroke-width:0.32875755"
           id="path846"
           inkscape:connector-curvature="0" />
        <path
           d="m 43.655326,230.00731 v 2.63663 h 3.327027 v 1.36106 h -3.327027 v 2.68924 h 4.221247 v 1.41365 h -5.996538 v -9.50766 h 5.996538 v 1.40708 z"
           style="font-style:normal;font-variant:normal;font-weight:bold;font-stretch:normal;font-family:Lato;-inkscape-font-specification:'Lato Bold';fill:#ffffff;stroke-width:0.32875755"
           id="path848"
           inkscape:connector-curvature="0" />
        <path
           d="m 48.93805,237.21367 q 0,-0.20383 0.07233,-0.38793 0.0789,-0.1841 0.210405,-0.31561 0.131503,-0.1315 0.315607,-0.2104 0.184104,-0.0789 0.394509,-0.0789 0.210405,0 0.387934,0.0789 0.184104,0.0789 0.315607,0.2104 0.138078,0.13151 0.21698,0.31561 0.0789,0.1841 0.0789,0.38793 0,0.21041 -0.0789,0.39451 -0.0789,0.17753 -0.21698,0.30904 -0.131503,0.1315 -0.315607,0.20383 -0.177529,0.0789 -0.387934,0.0789 -0.210405,0 -0.394509,-0.0789 -0.184104,-0.0723 -0.315607,-0.20383 -0.131503,-0.13151 -0.210405,-0.30904 -0.07233,-0.1841 -0.07233,-0.39451 z"
           style="font-style:normal;font-variant:normal;font-weight:bold;font-stretch:normal;font-family:Lato;-inkscape-font-specification:'Lato Bold';fill:#ffffff;stroke-width:0.32875755"
           id="path850"
           inkscape:connector-curvature="0" />
        <path
           d="m 56.187567,234.72827 q 0,0.80217 -0.197254,1.44653 -0.197255,0.64437 -0.591764,1.09805 -0.387934,0.45369 -0.973122,0.69697 -0.585189,0.24328 -1.361056,0.24328 -0.355059,0 -0.696967,-0.046 -0.341907,-0.0394 -0.716691,-0.1315 0.01972,-0.26301 0.04603,-0.52601 0.0263,-0.26301 0.04603,-0.52602 0.01973,-0.14465 0.111778,-0.23013 0.09863,-0.0921 0.276156,-0.0921 0.111778,0 0.289307,0.046 0.184104,0.046 0.46026,0.046 0.374784,0 0.664091,-0.1052 0.289306,-0.11178 0.479986,-0.34848 0.197254,-0.23671 0.295881,-0.61149 0.09863,-0.38136 0.09863,-0.92052 v -6.16749 h 1.768715 z"
           style="font-style:normal;font-variant:normal;font-weight:bold;font-stretch:normal;font-family:Lato;-inkscape-font-specification:'Lato Bold';fill:#ffffff;stroke-width:0.32875755"
           id="path852"
           inkscape:connector-curvature="0" />
        <path
           d="m 63.278046,230.32949 q -0.0789,0.13808 -0.170954,0.20383 -0.08548,0.0592 -0.21698,0.0592 -0.138078,0 -0.302457,-0.0986 -0.157804,-0.1052 -0.381359,-0.23013 -0.223555,-0.12493 -0.526012,-0.22356 -0.295882,-0.1052 -0.703541,-0.1052 -0.368209,0 -0.644365,0.0921 -0.276156,0.0855 -0.466836,0.24328 -0.184104,0.15781 -0.276156,0.38136 -0.09205,0.21698 -0.09205,0.47999 0,0.33533 0.184104,0.55889 0.19068,0.22355 0.499712,0.38136 0.309032,0.1578 0.703541,0.28273 0.394509,0.12493 0.808743,0.26958 0.414235,0.13808 0.808744,0.32876 0.394509,0.1841 0.703541,0.47341 0.309032,0.28273 0.493137,0.69696 0.190679,0.41424 0.190679,1.006 0,0.64437 -0.223555,1.20983 -0.21698,0.55889 -0.644365,0.9797 -0.42081,0.41423 -1.032299,0.65751 -0.611489,0.23671 -1.400507,0.23671 -0.453685,0 -0.894221,-0.0921 -0.440535,-0.0855 -0.848194,-0.24986 -0.401084,-0.16438 -0.756143,-0.39451 -0.355058,-0.23013 -0.631214,-0.51286 l 0.519437,-0.8482 q 0.06575,-0.0921 0.170954,-0.15122 0.105202,-0.0658 0.223555,-0.0658 0.164379,0 0.355058,0.13808 0.19068,0.13151 0.453686,0.29588 0.263006,0.16438 0.611489,0.30246 0.355058,0.1315 0.848194,0.1315 0.756143,0 1.170377,-0.35505 0.414235,-0.36164 0.414235,-1.0323 0,-0.37479 -0.19068,-0.61149 -0.184104,-0.23671 -0.493136,-0.39451 -0.309032,-0.16438 -0.703541,-0.27616 -0.394509,-0.11178 -0.802169,-0.24328 -0.407659,-0.1315 -0.802168,-0.31561 -0.394509,-0.1841 -0.703541,-0.47998 -0.309032,-0.29588 -0.499712,-0.73642 -0.184104,-0.44711 -0.184104,-1.09805 0,-0.51944 0.20383,-1.01257 0.210404,-0.49314 0.604914,-0.8745 0.394509,-0.38136 0.973122,-0.61149 0.578613,-0.23013 1.328181,-0.23013 0.841619,0 1.551735,0.26301 0.710117,0.26301 1.209828,0.73642 z"
           style="font-style:normal;font-variant:normal;font-weight:bold;font-stretch:normal;font-family:Lato;-inkscape-font-specification:'Lato Bold';fill:#ffffff;stroke-width:0.32875755"
           id="path854"
           inkscape:connector-curvature="0" />
      </g>
    </g>
  </g>
</svg>
