<?xml version="1.0" encoding="UTF-8" standalone="no"?>
<svg
   xmlns:dc="http://purl.org/dc/elements/1.1/"
   xmlns:cc="http://creativecommons.org/ns#"
   xmlns:rdf="http://www.w3.org/1999/02/22-rdf-syntax-ns#"
   xmlns:svg="http://www.w3.org/2000/svg"
   xmlns="http://www.w3.org/2000/svg"
   xmlns:sodipodi="http://sodipodi.sourceforge.net/DTD/sodipodi-0.dtd"
   xmlns:inkscape="http://www.inkscape.org/namespaces/inkscape"
   height="512"
   id="svg3430"
   version="1.1"
   viewBox="0 0 512 512"
   width="512"
   xml:space="preserve"
   sodipodi:docname="php-logo.svg"
   inkscape:version="0.92.3 (2405546, 2018-03-11)"><sodipodi:namedview
   pagecolor="#ffffff"
   bordercolor="#666666"
   borderopacity="1"
   objecttolerance="10"
   gridtolerance="10"
   guidetolerance="10"
   inkscape:pageopacity="0"
   inkscape:pageshadow="2"
   inkscape:window-width="1366"
   inkscape:window-height="703"
   id="namedview41"
   showgrid="false"
   inkscape:snap-bbox="true"
   inkscape:bbox-paths="true"
   inkscape:bbox-nodes="true"
   inkscape:snap-bbox-edge-midpoints="true"
   inkscape:snap-bbox-midpoints="true"
   inkscape:object-paths="true"
   inkscape:snap-intersection-paths="true"
   inkscape:snap-smooth-nodes="true"
   inkscape:snap-midpoints="true"
   inkscape:snap-center="true"
   inkscape:snap-object-midpoints="true"
   inkscape:snap-text-baseline="true"
   inkscape:snap-page="true"
   inkscape:zoom="0.59058029"
   inkscape:cx="365.18752"
   inkscape:cy="222.56062"
   inkscape:window-x="0"
   inkscape:window-y="0"
   inkscape:window-maximized="1"
   inkscape:current-layer="layer1" />
  <title
   id="title3510">Official PHP Logo</title>
  <metadata
   id="metadata3436">
    <rdf:RDF>
      <cc:Work
   rdf:about="">
        <dc:format>image/svg+xml</dc:format>
        <dc:type
   rdf:resource="http://purl.org/dc/dcmitype/StillImage" />
        <dc:title>Official PHP Logo</dc:title>
        <dc:creator>
          <cc:Agent>
            <dc:title>Colin Viebrock</dc:title>
          </cc:Agent>
        </dc:creator>
        <dc:description />
        <dc:contributor>
          <cc:Agent>
            <dc:title />
          </cc:Agent>
        </dc:contributor>
        <cc:license
   rdf:resource="http://creativecommons.org/licenses/by-sa/4.0/" />
        <dc:rights>
          <cc:Agent>
            <dc:title>Copyright Colin Viebrock 1997 - All rights reserved.</dc:title>
          </cc:Agent>
        </dc:rights>
        <dc:date>1997</dc:date>
      </cc:Work>
      
    <cc:License
   rdf:about="http://creativecommons.org/licenses/by-sa/4.0/"><cc:permits
     rdf:resource="http://creativecommons.org/ns#Reproduction" /><cc:permits
     rdf:resource="http://creativecommons.org/ns#Distribution" /><cc:requires
     rdf:resource="http://creativecommons.org/ns#Notice" /><cc:requires
     rdf:resource="http://creativecommons.org/ns#Attribution" /><cc:permits
     rdf:resource="http://creativecommons.org/ns#DerivativeWorks" /><cc:requires
     rdf:resource="http://creativecommons.org/ns#ShareAlike" /></cc:License></rdf:RDF>
  </metadata>
  <defs
   id="defs3434">
    <clipPath
   clipPathUnits="userSpaceOnUse"
   id="clipPath3444">
      <path
   d="M 11.52,162 C 11.52,81.677 135.307,16.561 288,16.561 v 0 c 152.693,0 276.481,65.116 276.481,145.439 v 0 c 0,80.322 -123.788,145.439 -276.481,145.439 v 0 C 135.307,307.439 11.52,242.322 11.52,162"
   id="path3446"
   inkscape:connector-curvature="0" />
    </clipPath>
    <radialGradient
   cx="0"
   cy="0"
   fx="0"
   fy="0"
   gradientTransform="matrix(363.05789,0,0,-363.05789,177.52002,256.30713)"
   gradientUnits="userSpaceOnUse"
   id="radialGradient3452"
   r="1"
   spreadMethod="pad">
      <stop
   id="stop3454"
   offset="0"
   style="stop-opacity:1;stop-color:#aeb2d5" />
      <stop
   id="stop3456"
   offset="0.3"
   style="stop-opacity:1;stop-color:#aeb2d5" />
      <stop
   id="stop3458"
   offset="0.75"
   style="stop-opacity:1;stop-color:#484c89" />
      <stop
   id="stop3460"
   offset="1"
   style="stop-opacity:1;stop-color:#484c89" />
    </radialGradient>
    <clipPath
   clipPathUnits="userSpaceOnUse"
   id="clipPath3468">
      <path
   d="M 0,324 H 576 V 0 H 0 Z"
   id="path3470"
   inkscape:connector-curvature="0" />
    </clipPath>
    <clipPath
   clipPathUnits="userSpaceOnUse"
   id="clipPath3480">
      <path
   d="M 0,324 H 576 V 0 H 0 Z"
   id="path3482"
   inkscape:connector-curvature="0" />
    </clipPath>
  
    
    
    
  
      
    </defs>
  
<g
   inkscape:groupmode="layer"
   id="layer1"
   inkscape:label="Layer 1"><g
     id="g840"><circle
       r="256"
       cy="256"
       cx="256"
       id="path852"
       style="fill:#4f5b93;fill-opacity:1;stroke:none;stroke-width:5;stroke-linecap:round;stroke-linejoin:round;stroke-miterlimit:4;stroke-dasharray:none;stroke-opacity:1;paint-order:stroke fill markers" /><g
       transform="translate(-12.597735,15.06746)"
       id="g912"><path
         style="fill:#ffffff;fill-opacity:1;stroke:none;stroke-width:4.23312473;stroke-linecap:round;stroke-linejoin:round;stroke-miterlimit:4;stroke-dasharray:none;stroke-opacity:1;paint-order:stroke fill markers"
         d="m 82.533986,328.34657 c 0.02937,-0.81488 6.035947,-32.15058 13.34795,-69.6349 l 13.294544,-68.15331 33.8514,-0.24133 c 21.56629,-0.15375 35.80575,0.0916 39.23659,0.67608 8.75707,1.49185 15.78523,4.7702 21.42997,9.99624 8.7166,8.07003 12.26628,17.84239 11.43359,31.47694 -1.18621,19.42323 -9.45324,35.70433 -24.01778,47.30063 -6.30663,5.02135 -12.52673,8.07131 -21.26089,10.42502 -5.55163,1.49607 -9.77846,1.8168 -28.5572,2.16686 l -22.04111,0.41089 -2.77182,14.50777 c -1.5245,7.97927 -3.16153,16.31743 -3.63786,18.52923 l -0.86604,4.02147 H 97.227959 c -13.501043,0 -14.742859,-0.12521 -14.693973,-1.48159 z m 74.449594,-58.68446 c 14.37183,-3.04004 22.34618,-11.98426 25.77116,-28.90553 3.13947,-15.51072 0.46264,-23.11676 -9.50876,-27.01854 -4.26539,-1.66902 -6.78215,-1.93331 -21.43052,-2.25045 l -16.59756,-0.35934 -5.62635,28.76911 c -3.09449,15.82302 -5.62634,29.44611 -5.62634,30.27355 0,1.40207 0.96481,1.46945 14.18097,0.99029 7.79953,-0.28277 16.27636,-0.95736 18.8374,-1.49909 z"
         id="path903"
         inkscape:connector-curvature="0" /><path
         style="fill:#ffffff;fill-opacity:1;stroke:none;stroke-width:4.23312473;stroke-linecap:round;stroke-linejoin:round;stroke-miterlimit:4;stroke-dasharray:none;stroke-opacity:1;paint-order:stroke fill markers"
         d="m 213.14755,290.67176 c 0.64155,-2.59867 26.80528,-137.36603 26.80528,-138.07196 0,-0.30958 6.66717,-0.56288 14.81593,-0.56288 11.29234,0 14.81415,0.25169 14.80843,1.05829 -0.004,0.58205 -1.52806,8.8086 -3.3865,18.28123 -1.85845,9.47262 -3.37899,17.56847 -3.37899,17.99078 0,0.43667 8.30709,0.77059 19.26072,0.77422 10.59339,0.004 21.6558,0.39507 24.58311,0.87011 12.21349,1.98198 20.65925,7.3663 23.62999,15.06451 2.87931,7.46128 2.13089,14.95331 -5.23688,52.42395 l -6.70042,34.07665 h -15.13615 -15.13616 l 0.48592,-2.32821 c 0.26726,-1.28052 3.18402,-16.23404 6.4817,-33.23003 6.76849,-34.88432 6.94976,-37.73734 2.64228,-41.58607 -3.37964,-3.01971 -6.6042,-3.42639 -24.70485,-3.1158 l -14.80617,0.25406 -7.79285,39.79137 c -4.28607,21.88525 -7.81454,39.88662 -7.84105,40.00303 -0.0265,0.11641 -6.75666,0.21165 -14.95591,0.21165 h -14.90771 z"
         id="path905"
         inkscape:connector-curvature="0" /><path
         style="fill:#ffffff;fill-opacity:1;stroke:none;stroke-width:4.23312473;stroke-linecap:round;stroke-linejoin:round;stroke-miterlimit:4;stroke-dasharray:none;stroke-opacity:1;paint-order:stroke fill markers"
         d="m 322.07544,329.38769 c 0,-0.60612 26.05136,-134.75365 26.68228,-137.39634 l 0.46638,-1.9535 37.01151,0.2863 c 35.62548,0.27558 37.22235,0.35696 42.64151,2.17301 11.57127,3.87773 20.6156,12.28953 24.17202,22.4815 2.31739,6.64119 2.10288,23.35508 -0.41242,32.13355 -6.31906,22.05381 -23.00145,38.4327 -44.20553,43.40136 -4.85731,1.13818 -11.37576,1.57747 -27.73432,1.86906 -20.99446,0.37421 -21.39276,0.41422 -21.82996,2.19251 -0.24493,0.99623 -1.88847,9.24047 -3.65231,18.32052 l -3.20698,16.50919 -14.96609,0.23119 c -8.23135,0.12716 -14.96609,0.0154 -14.96609,-0.24835 z m 76.18479,-60.12802 c 13.17456,-3.14005 20.43778,-11.36884 24.02975,-27.22432 3.66711,-16.18707 0.0478,-25.58871 -11.21933,-29.14338 -1.68453,-0.53146 -10.50388,-1.14523 -19.59856,-1.36394 l -16.53579,-0.39765 -5.69181,29.50536 c -3.13049,16.22795 -5.69014,29.8511 -5.68811,30.27366 0.006,1.19651 28.43156,-0.15479 34.70385,-1.64973 z"
         id="path907"
         inkscape:connector-curvature="0" /></g></g></g></svg>